<svg xmlns="http://www.w3.org/2000/svg" width="1080" height="1080" viewBox="0 0 1080 1080">
<rect width="1080" height="1080" fill="#4C91BE"/>
<g fill="#20201C" opacity="0.043"><circle cx="35" cy="390" r="1.8"/><circle cx="554" cy="41" r="1.2"/><circle cx="282" cy="592" r="1.8"/><circle cx="298" cy="127" r="1.8"/><circle cx="553" cy="927" r="1.8"/><circle cx="919" cy="425" r="0.8"/><circle cx="736" cy="600" r="1.2"/><circle cx="59" cy="598" r="0.8"/><circle cx="792" cy="195" r="1.2"/><circle cx="492" cy="803" r="1.8"/><circle cx="998" cy="397" r="1.8"/><circle cx="770" cy="576" r="1.2"/><circle cx="829" cy="387" r="1.8"/><circle cx="284" cy="1034" r="1.2"/><circle cx="1014" cy="110" r="0.8"/><circle cx="434" cy="975" r="1.2"/><circle cx="233" cy="904" r="1.2"/><circle cx="360" cy="770" r="1.8"/><circle cx="914" cy="560" r="1.2"/><circle cx="928" cy="139" r="1.8"/><circle cx="1011" cy="878" r="1.8"/><circle cx="390" cy="960" r="0.8"/><circle cx="317" cy="344" r="0.8"/><circle cx="100" cy="546" r="1.2"/><circle cx="278" cy="516" r="1.2"/><circle cx="544" cy="1040" r="1.8"/><circle cx="330" cy="92" r="1.8"/><circle cx="941" cy="98" r="0.8"/><circle cx="750" cy="234" r="1.8"/><circle cx="671" cy="411" r="1.2"/><circle cx="313" cy="285" r="1.8"/><circle cx="34" cy="432" r="0.8"/><circle cx="581" cy="275" r="0.8"/><circle cx="1037" cy="695" r="1.2"/><circle cx="620" cy="528" r="1.2"/><circle cx="528" cy="424" r="1.8"/><circle cx="288" cy="318" r="1.2"/><circle cx="886" cy="575" r="1.8"/><circle cx="824" cy="251" r="1.8"/><circle cx="575" cy="824" r="0.8"/></g>
<path d="M 734.4 385.8 L 652.2 406.4 L 707.3 468.4 L 626.9 462.0 L 631.3 547.4 L 578.0 501.0 L 541.7 566.3 L 514.3 503.9 L 449.3 544.6 L 448.0 463.1 L 380.6 474.4 L 417.9 415.7 L 351.9 386.4 L 418.5 351.4 L 373.7 282.7 L 447.6 295.1 L 451.4 218.4 L 513.6 268.3 L 536.8 186.7 L 566.1 265.2 L 641.6 221.1 L 624.0 293.2 L 705.3 278.9 L 651.6 350.0 Z" fill="#BF9631" opacity="1.00"/>
<path d="M 607.8 380.0 L 595.1 408.9 L 576.5 432.9 L 548.4 449.1 L 518.3 437.2 L 495.1 419.8 L 481.2 394.5 L 476.3 364.3 L 496.0 341.0 L 516.3 317.6 L 547.8 315.5 L 577.4 325.8 L 592.1 352.7 Z" fill="#EFE4CF" opacity="1.00"/>
<text x="540.0" y="355.0" text-anchor="middle" dominant-baseline="middle" font-family="Arial, serif" font-size="42" font-weight="700" fill="#20201C" transform="rotate(90.0 540.0 355.0)">OLD</text>
<path d="M 366.9 676.7 L 431.5 653.4 L 496.5 660.8 L 573.9 626.0 L 683.9 616.1 L 624.3 663.9 L 687.6 692.7 L 567.7 685.8 L 489.9 715.1 L 443.4 685.4 L 366.9 676.7" fill="none" stroke="#20201C" stroke-width="5" stroke-linecap="round" stroke-linejoin="round"/>
<path d="M 503.6 660.4 L 534.7 615.9 L 559.6 663.8" fill="none" stroke="#20201C" stroke-width="5" stroke-linecap="round" stroke-linejoin="round"/>
<text x="540.0" y="815.0" text-anchor="middle" dominant-baseline="middle" font-family="Bookman Old Style, serif" font-size="88" font-weight="700" fill="#EFE4CF">TB</text>
</svg>