<svg xmlns="http://www.w3.org/2000/svg" width="1080" height="1350" viewBox="0 0 1080 1350">
<rect width="1080" height="1350" fill="#EFE4CF"/>
<g fill="#20201C" opacity="0.047"><circle cx="951" cy="105" r="1.2"/><circle cx="68" cy="886" r="1.2"/><circle cx="315" cy="630" r="1.8"/><circle cx="493" cy="398" r="0.8"/><circle cx="635" cy="1169" r="1.2"/><circle cx="86" cy="1142" r="1.2"/><circle cx="704" cy="82" r="0.8"/><circle cx="526" cy="717" r="1.8"/><circle cx="790" cy="1087" r="1.8"/><circle cx="744" cy="745" r="1.8"/><circle cx="725" cy="1282" r="1.2"/><circle cx="563" cy="378" r="0.8"/><circle cx="1018" cy="1161" r="1.2"/><circle cx="133" cy="441" r="0.8"/><circle cx="55" cy="26" r="0.8"/><circle cx="210" cy="1191" r="1.8"/><circle cx="42" cy="968" r="0.8"/><circle cx="744" cy="947" r="1.8"/><circle cx="221" cy="104" r="1.8"/><circle cx="24" cy="306" r="1.2"/><circle cx="686" cy="163" r="1.8"/><circle cx="986" cy="445" r="1.2"/><circle cx="607" cy="118" r="1.2"/><circle cx="263" cy="412" r="1.2"/><circle cx="56" cy="1019" r="0.8"/><circle cx="802" cy="1234" r="1.8"/><circle cx="678" cy="759" r="1.2"/><circle cx="286" cy="1186" r="1.8"/><circle cx="607" cy="95" r="1.2"/><circle cx="919" cy="337" r="1.8"/><circle cx="302" cy="561" r="0.8"/><circle cx="573" cy="458" r="1.2"/><circle cx="387" cy="657" r="1.2"/><circle cx="121" cy="1287" r="0.8"/><circle cx="120" cy="38" r="1.2"/><circle cx="1004" cy="1167" r="1.2"/><circle cx="399" cy="923" r="0.8"/><circle cx="541" cy="154" r="1.2"/><circle cx="876" cy="1039" r="1.2"/><circle cx="27" cy="1254" r="0.8"/><circle cx="955" cy="445" r="1.2"/><circle cx="896" cy="283" r="1.2"/><circle cx="964" cy="320" r="0.8"/><circle cx="899" cy="1153" r="0.8"/><circle cx="209" cy="788" r="0.8"/><circle cx="882" cy="738" r="1.2"/><circle cx="87" cy="138" r="0.8"/><circle cx="692" cy="372" r="0.8"/><circle cx="801" cy="621" r="0.8"/><circle cx="953" cy="471" r="1.2"/><circle cx="175" cy="570" r="1.2"/><circle cx="64" cy="995" r="1.8"/><circle cx="1063" cy="1263" r="1.2"/><circle cx="916" cy="421" r="0.8"/><circle cx="910" cy="1180" r="1.2"/></g>
<ellipse cx="300.0" cy="174.0" rx="54.0" ry="46.0" fill="none" stroke="#20201C" stroke-width="7"/>
<text x="300.0" y="176.0" text-anchor="middle" dominant-baseline="middle" font-family="Arial, serif" font-size="42" font-weight="700" fill="#20201C">T</text>
<ellipse cx="419.0" cy="261.0" rx="54.0" ry="46.0" fill="none" stroke="#20201C" stroke-width="7"/>
<text x="419.8" y="263.1" text-anchor="middle" dominant-baseline="middle" font-family="Arial, serif" font-size="42" font-weight="700" fill="#20201C">H</text>
<ellipse cx="374.0" cy="401.0" rx="54.0" ry="46.0" fill="none" stroke="#20201C" stroke-width="7"/>
<text x="374.1" y="403.9" text-anchor="middle" dominant-baseline="middle" font-family="Arial, serif" font-size="42" font-weight="700" fill="#20201C">I</text>
<ellipse cx="225.0" cy="401.0" rx="54.0" ry="46.0" fill="none" stroke="#20201C" stroke-width="7"/>
<text x="225.9" y="403.9" text-anchor="middle" dominant-baseline="middle" font-family="Arial, serif" font-size="42" font-weight="700" fill="#20201C">R</text>
<ellipse cx="180.0" cy="261.0" rx="54.0" ry="46.0" fill="none" stroke="#20201C" stroke-width="7"/>
<text x="180.2" y="263.1" text-anchor="middle" dominant-baseline="middle" font-family="Arial, serif" font-size="42" font-weight="700" fill="#20201C">D</text>
<path d="M 345.7 300.0 L 341.4 323.9 L 320.5 335.4 L 300.0 346.8 L 276.2 341.3 L 261.2 322.4 L 256.5 300.0 L 261.0 277.5 L 279.4 264.3 L 300.0 256.1 L 320.6 264.4 L 337.9 278.1 Z" fill="#20201C" opacity="1.00"/>
<path d="M 601.3 301.8 L 649.7 276.4 L 694.7 289.4 L 748.8 258.3 L 825.1 250.7 L 780.4 288.1 L 830.4 311.0 L 741.1 307.1 L 687.9 334.2 L 655.1 308.7 L 601.3 301.8" fill="none" stroke="#20201C" stroke-width="5" stroke-linecap="round" stroke-linejoin="round"/>
<path d="M 699.6 290.2 L 718.8 250.0 L 734.0 289.1" fill="none" stroke="#20201C" stroke-width="5" stroke-linecap="round" stroke-linejoin="round"/>
<path d="M 876.6 529.8 L 832.1 547.7 L 861.1 580.2 L 816.1 578.6 L 820.2 621.2 L 785.6 591.0 L 768.6 629.7 L 756.1 595.5 L 720.8 617.9 L 724.8 572.8 L 676.3 578.9 L 704.7 546.1 L 663.4 530.4 L 707.7 511.1 L 675.9 473.9 L 721.6 482.5 L 718.6 436.4 L 752.2 463.9 L 772.5 419.6 L 786.0 459.9 L 825.8 440.7 L 819.4 480.4 L 861.5 478.4 L 836.6 513.8 Z" fill="#BF9631" opacity="1.00"/>
<path d="M 808.2 528.0 L 803.4 545.6 L 791.1 558.6 L 774.0 561.2 L 757.5 560.9 L 743.2 551.8 L 734.4 536.8 L 733.7 519.0 L 741.9 503.1 L 758.1 496.7 L 774.2 493.6 L 788.7 500.9 L 804.1 510.1 Z" fill="#EFE4CF" opacity="1.00"/>
<path d="M 248.7 780.2 L 299.3 751.5 L 381.5 748.2 L 447.3 774.8 L 385.9 802.5 L 297.4 798.7 L 248.7 780.2" fill="none" stroke="#20201C" stroke-width="5" stroke-linecap="round" stroke-linejoin="round"/>
<path d="M 433.4 775.5 L 482.8 743.4 L 474.3 806.5 L 433.4 775.5" fill="none" stroke="#20201C" stroke-width="5" stroke-linecap="round" stroke-linejoin="round"/>
<path d="M 590.4 778.9 L 627.8 732.8 L 693.2 716.3 L 772.0 722.8 L 830.3 702.9 L 882.7 736.5 L 837.8 772.6 L 812.4 802.3 L 719.6 821.2 L 636.0 805.3" fill="none" stroke="#20201C" stroke-width="5" stroke-linecap="round" stroke-linejoin="round"/>
<path d="M 659.7 802.4 L 644.3 852.7 L 673.4 855.0 L 686.2 802.7" fill="none" stroke="#20201C" stroke-width="5" stroke-linecap="round" stroke-linejoin="round"/>
<path d="M 771.9 809.5 L 786.2 855.0 L 815.3 852.6 L 798.4 802.7" fill="none" stroke="#20201C" stroke-width="5" stroke-linecap="round" stroke-linejoin="round"/>
<path d="M 610.2 757.8 L 568.4 725.8 L 600.8 782.1" fill="none" stroke="#20201C" stroke-width="5" stroke-linecap="round" stroke-linejoin="round"/>
<path d="M 821.4 708.4 L 832.4 667.0 L 854.9 721.0" fill="none" stroke="#20201C" stroke-width="5" stroke-linecap="round" stroke-linejoin="round"/>
<text x="540.0" y="1025.0" text-anchor="middle" dominant-baseline="middle" font-family="Bookman Old Style, serif" font-size="88" font-weight="700" fill="#20201C">THIRD BUTTON</text>
<text x="540.0" y="1120.0" text-anchor="middle" dominant-baseline="middle" font-family="Arial, serif" font-size="42" font-weight="700" fill="#20201C">ordinary signs</text>
<text x="540.0" y="1174.0" text-anchor="middle" dominant-baseline="middle" font-family="Arial, serif" font-size="34" font-weight="700" fill="#20201C">for ordinary things</text>
</svg>