<svg xmlns="http://www.w3.org/2000/svg" width="1600" height="1100" viewBox="0 0 1600 1100">
<rect width="1600" height="1100" fill="#EFE4CF"/>
<g fill="#20201C" opacity="0.039"><circle cx="424" cy="403" r="1.8"/><circle cx="170" cy="70" r="0.8"/><circle cx="1508" cy="530" r="1.2"/><circle cx="988" cy="852" r="1.8"/><circle cx="1351" cy="38" r="0.8"/><circle cx="1383" cy="908" r="1.2"/><circle cx="928" cy="279" r="1.2"/><circle cx="474" cy="1022" r="1.2"/><circle cx="1008" cy="469" r="0.8"/><circle cx="1058" cy="61" r="1.8"/><circle cx="1081" cy="849" r="1.8"/><circle cx="164" cy="793" r="1.8"/><circle cx="1534" cy="666" r="1.2"/><circle cx="301" cy="281" r="1.2"/><circle cx="159" cy="200" r="1.8"/><circle cx="1518" cy="849" r="0.8"/><circle cx="972" cy="412" r="1.8"/><circle cx="48" cy="391" r="1.2"/><circle cx="1324" cy="72" r="1.8"/><circle cx="434" cy="981" r="0.8"/><circle cx="276" cy="151" r="1.8"/><circle cx="54" cy="59" r="0.8"/><circle cx="813" cy="558" r="1.8"/><circle cx="831" cy="585" r="0.8"/><circle cx="1501" cy="1092" r="0.8"/><circle cx="10" cy="913" r="1.2"/><circle cx="1466" cy="4" r="0.8"/><circle cx="614" cy="336" r="1.2"/><circle cx="1047" cy="178" r="1.2"/><circle cx="281" cy="621" r="0.8"/><circle cx="1302" cy="950" r="1.2"/><circle cx="78" cy="96" r="0.8"/><circle cx="1140" cy="63" r="1.8"/><circle cx="537" cy="1028" r="0.8"/><circle cx="1097" cy="169" r="1.2"/><circle cx="997" cy="1065" r="1.8"/><circle cx="1259" cy="188" r="0.8"/><circle cx="616" cy="93" r="1.8"/><circle cx="408" cy="247" r="1.8"/><circle cx="826" cy="540" r="0.8"/><circle cx="445" cy="516" r="1.8"/><circle cx="164" cy="185" r="0.8"/></g>
<ellipse cx="285.0" cy="180.0" rx="54.0" ry="46.0" fill="none" stroke="#20201C" stroke-width="7"/>
<text x="285.0" y="182.0" text-anchor="middle" dominant-baseline="middle" font-family="Arial, serif" font-size="42" font-weight="700" fill="#20201C">T</text>
<ellipse cx="403.0" cy="266.0" rx="54.0" ry="46.0" fill="none" stroke="#20201C" stroke-width="7"/>
<text x="403.9" y="268.4" text-anchor="middle" dominant-baseline="middle" font-family="Arial, serif" font-size="42" font-weight="700" fill="#20201C">H</text>
<ellipse cx="358.0" cy="406.0" rx="54.0" ry="46.0" fill="none" stroke="#20201C" stroke-width="7"/>
<text x="358.5" y="408.1" text-anchor="middle" dominant-baseline="middle" font-family="Arial, serif" font-size="42" font-weight="700" fill="#20201C">I</text>
<ellipse cx="211.0" cy="406.0" rx="54.0" ry="46.0" fill="none" stroke="#20201C" stroke-width="7"/>
<text x="211.5" y="408.1" text-anchor="middle" dominant-baseline="middle" font-family="Arial, serif" font-size="42" font-weight="700" fill="#20201C">R</text>
<ellipse cx="166.0" cy="266.0" rx="54.0" ry="46.0" fill="none" stroke="#20201C" stroke-width="7"/>
<text x="166.1" y="268.4" text-anchor="middle" dominant-baseline="middle" font-family="Arial, serif" font-size="42" font-weight="700" fill="#20201C">D</text>
<path d="M 330.7 305.0 L 326.4 328.9 L 305.5 340.4 L 285.0 351.8 L 261.2 346.3 L 246.2 327.4 L 241.5 305.0 L 246.0 282.5 L 264.4 269.3 L 285.0 261.1 L 305.6 269.4 L 322.9 283.1 Z" fill="#20201C" opacity="1.00"/>
<text x="285.0" y="565.0" text-anchor="middle" dominant-baseline="middle" font-family="Arial, serif" font-size="42" font-weight="700" fill="#20201C">LETTER FLOWER</text>
<path d="M 538.7 322.6 L 584.2 271.5 L 653.9 253.0 L 745.2 263.4 L 802.2 240.6 L 855.8 271.1 L 815.3 318.0 L 787.4 350.8 L 681.7 365.8 L 593.4 351.1" fill="none" stroke="#20201C" stroke-width="5" stroke-linecap="round" stroke-linejoin="round"/>
<path d="M 614.3 348.6 L 602.2 404.1 L 632.3 406.4 L 651.6 351.8" fill="none" stroke="#20201C" stroke-width="5" stroke-linecap="round" stroke-linejoin="round"/>
<path d="M 736.7 356.4 L 757.0 406.7 L 787.1 403.8 L 774.0 351.8" fill="none" stroke="#20201C" stroke-width="5" stroke-linecap="round" stroke-linejoin="round"/>
<path d="M 560.3 299.2 L 519.4 263.7 L 553.1 325.8" fill="none" stroke="#20201C" stroke-width="5" stroke-linecap="round" stroke-linejoin="round"/>
<path d="M 790.7 244.6 L 807.4 198.7 L 830.3 258.2" fill="none" stroke="#20201C" stroke-width="5" stroke-linecap="round" stroke-linejoin="round"/>
<text x="705.0" y="305.0" text-anchor="middle" dominant-baseline="middle" font-family="Arial, serif" font-size="36" font-weight="700" fill="#20201C">THIRD</text>
<text x="700.0" y="565.0" text-anchor="middle" dominant-baseline="middle" font-family="Arial, serif" font-size="42" font-weight="700" fill="#20201C">BODY TEXT</text>
<path d="M 1194.8 300.9 L 1145.9 317.9 L 1178.6 362.0 L 1128.9 353.5 L 1131.0 406.7 L 1092.7 377.1 L 1073.5 423.7 L 1051.7 378.6 L 1007.8 404.6 L 1015.3 355.8 L 962.1 363.4 L 991.6 322.2 L 948.5 301.8 L 991.2 283.5 L 963.6 234.7 L 1016.9 244.2 L 1007.3 190.0 L 1047.5 220.8 L 1069.2 178.5 L 1090.3 221.7 L 1131.6 195.5 L 1124.2 242.0 L 1180.7 238.5 L 1146.7 275.7 Z" fill="#BF9631" opacity="1.00"/>
<path d="M 1112.2 300.0 L 1104.7 318.2 L 1093.8 334.5 L 1074.6 338.0 L 1056.0 337.0 L 1038.9 327.6 L 1027.9 310.4 L 1027.0 289.4 L 1040.5 273.9 L 1054.8 260.0 L 1074.9 259.8 L 1093.3 266.3 L 1103.9 282.2 Z" fill="#EFE4CF" opacity="1.00"/>
<text x="1070.0" y="300.0" text-anchor="middle" dominant-baseline="middle" font-family="Arial, serif" font-size="32" font-weight="700" fill="#20201C" transform="rotate(90.0 1070.0 300.0)">ORDINARY</text>
<text x="1070.0" y="565.0" text-anchor="middle" dominant-baseline="middle" font-family="Arial, serif" font-size="42" font-weight="700" fill="#20201C">SUN OVAL</text>
<path d="M 222.9 824.3 L 280.3 798.9 L 336.2 812.7 L 406.2 780.5 L 499.2 769.9 L 445.6 812.3 L 501.6 841.7 L 400.1 835.4 L 330.4 865.2 L 295.0 835.1 L 222.9 824.3" fill="none" stroke="#20201C" stroke-width="5" stroke-linecap="round" stroke-linejoin="round"/>
<path d="M 345.8 814.4 L 368.9 772.3 L 390.6 810.9" fill="none" stroke="#20201C" stroke-width="5" stroke-linecap="round" stroke-linejoin="round"/>
<path d="M 674.2 809.0 L 724.3 782.2 L 814.6 775.7 L 880.3 804.1 L 813.2 832.2 L 726.3 832.1 L 674.2 809.0" fill="none" stroke="#263443" stroke-width="5" stroke-linecap="round" stroke-linejoin="round"/>
<path d="M 866.8 803.6 L 920.8 774.1 L 909.0 836.5 L 866.8 803.6" fill="none" stroke="#263443" stroke-width="5" stroke-linecap="round" stroke-linejoin="round"/>
<ellipse cx="1270.0" cy="804.0" rx="150.0" ry="96.0" fill="none" stroke="#20201C" stroke-width="7"/>
<text x="1270.0" y="785.0" text-anchor="middle" dominant-baseline="middle" font-family="Bookman Old Style, serif" font-size="38" font-weight="700" fill="#20201C">THIRD BUTTON</text>
<text x="1270.0" y="835.0" text-anchor="middle" dominant-baseline="middle" font-family="Arial, serif" font-size="24" font-weight="700" fill="#20201C">ordinary signs</text>
</svg>