<svg xmlns="http://www.w3.org/2000/svg" width="1080" height="1080" viewBox="0 0 1080 1080">
<rect width="1080" height="1080" fill="#EFE4CF"/>
<g fill="#20201C" opacity="0.043"><circle cx="1058" cy="634" r="1.8"/><circle cx="628" cy="278" r="1.8"/><circle cx="900" cy="228" r="1.2"/><circle cx="501" cy="471" r="1.8"/><circle cx="476" cy="162" r="1.8"/><circle cx="918" cy="326" r="1.8"/><circle cx="195" cy="421" r="1.8"/><circle cx="749" cy="177" r="1.2"/><circle cx="230" cy="337" r="0.8"/><circle cx="883" cy="694" r="1.2"/><circle cx="793" cy="347" r="0.8"/><circle cx="553" cy="193" r="0.8"/><circle cx="877" cy="262" r="1.8"/><circle cx="49" cy="797" r="0.8"/><circle cx="1005" cy="524" r="0.8"/><circle cx="793" cy="301" r="1.2"/><circle cx="380" cy="384" r="0.8"/><circle cx="322" cy="910" r="0.8"/><circle cx="323" cy="776" r="1.2"/><circle cx="1015" cy="94" r="1.2"/><circle cx="599" cy="972" r="1.8"/><circle cx="279" cy="1072" r="1.8"/><circle cx="313" cy="918" r="1.2"/><circle cx="413" cy="431" r="1.8"/><circle cx="251" cy="511" r="1.2"/><circle cx="925" cy="383" r="1.8"/><circle cx="868" cy="787" r="1.8"/><circle cx="144" cy="469" r="1.8"/><circle cx="1057" cy="71" r="1.2"/><circle cx="924" cy="409" r="1.2"/><circle cx="428" cy="754" r="1.8"/><circle cx="154" cy="1015" r="0.8"/><circle cx="820" cy="1036" r="0.8"/><circle cx="741" cy="894" r="1.2"/><circle cx="295" cy="104" r="0.8"/><circle cx="793" cy="242" r="0.8"/><circle cx="537" cy="823" r="1.8"/><circle cx="1059" cy="54" r="1.2"/><circle cx="308" cy="11" r="1.2"/><circle cx="447" cy="316" r="0.8"/></g>
<ellipse cx="540.0" cy="205.0" rx="54.0" ry="46.0" fill="none" stroke="#20201C" stroke-width="7"/>
<text x="540.0" y="207.0" text-anchor="middle" dominant-baseline="middle" font-family="Arial, serif" font-size="42" font-weight="700" fill="#20201C">T</text>
<ellipse cx="668.0" cy="298.0" rx="54.0" ry="46.0" fill="none" stroke="#20201C" stroke-width="7"/>
<text x="668.4" y="300.3" text-anchor="middle" dominant-baseline="middle" font-family="Arial, serif" font-size="42" font-weight="700" fill="#20201C">H</text>
<ellipse cx="619.0" cy="449.0" rx="54.0" ry="46.0" fill="none" stroke="#20201C" stroke-width="7"/>
<text x="619.4" y="451.2" text-anchor="middle" dominant-baseline="middle" font-family="Arial, serif" font-size="42" font-weight="700" fill="#20201C">I</text>
<ellipse cx="460.0" cy="449.0" rx="54.0" ry="46.0" fill="none" stroke="#20201C" stroke-width="7"/>
<text x="460.6" y="451.2" text-anchor="middle" dominant-baseline="middle" font-family="Arial, serif" font-size="42" font-weight="700" fill="#20201C">R</text>
<ellipse cx="411.0" cy="298.0" rx="54.0" ry="46.0" fill="none" stroke="#20201C" stroke-width="7"/>
<text x="411.6" y="300.3" text-anchor="middle" dominant-baseline="middle" font-family="Arial, serif" font-size="42" font-weight="700" fill="#20201C">D</text>
<path d="M 585.7 340.0 L 581.4 363.9 L 560.5 375.4 L 540.0 386.8 L 516.2 381.3 L 501.2 362.4 L 496.5 340.0 L 501.0 317.5 L 519.4 304.3 L 540.0 296.1 L 560.6 304.4 L 577.9 318.1 Z" fill="#20201C" opacity="1.00"/>
<text x="540.0" y="720.0" text-anchor="middle" dominant-baseline="middle" font-family="Bookman Old Style, serif" font-size="76" font-weight="700" fill="#20201C">THIRD</text>
<text x="540.0" y="800.0" text-anchor="middle" dominant-baseline="middle" font-family="Bookman Old Style, serif" font-size="76" font-weight="700" fill="#20201C">BUTTON</text>
</svg>