<svg xmlns="http://www.w3.org/2000/svg" width="1080" height="1350" viewBox="0 0 1080 1350">
<rect width="1080" height="1350" fill="#4C91BE"/>
<g fill="#20201C" opacity="0.047"><circle cx="288" cy="431" r="0.8"/><circle cx="714" cy="393" r="0.8"/><circle cx="954" cy="721" r="1.8"/><circle cx="485" cy="13" r="1.8"/><circle cx="674" cy="541" r="1.8"/><circle cx="281" cy="531" r="1.2"/><circle cx="729" cy="19" r="1.2"/><circle cx="737" cy="1193" r="1.2"/><circle cx="839" cy="374" r="1.8"/><circle cx="743" cy="818" r="1.8"/><circle cx="244" cy="927" r="1.8"/><circle cx="422" cy="1081" r="1.8"/><circle cx="315" cy="285" r="1.8"/><circle cx="573" cy="178" r="1.2"/><circle cx="970" cy="1208" r="1.2"/><circle cx="670" cy="590" r="0.8"/><circle cx="92" cy="778" r="1.8"/><circle cx="137" cy="774" r="1.2"/><circle cx="1042" cy="116" r="1.8"/><circle cx="852" cy="1181" r="1.8"/><circle cx="197" cy="421" r="0.8"/><circle cx="440" cy="641" r="1.8"/><circle cx="959" cy="554" r="0.8"/><circle cx="780" cy="395" r="1.2"/><circle cx="634" cy="448" r="1.8"/><circle cx="747" cy="1202" r="0.8"/><circle cx="129" cy="1091" r="1.2"/><circle cx="11" cy="580" r="0.8"/><circle cx="78" cy="493" r="0.8"/><circle cx="551" cy="58" r="0.8"/><circle cx="410" cy="630" r="1.2"/><circle cx="545" cy="867" r="1.2"/><circle cx="99" cy="346" r="1.2"/><circle cx="1074" cy="982" r="1.8"/><circle cx="906" cy="796" r="1.2"/><circle cx="470" cy="367" r="0.8"/><circle cx="771" cy="616" r="1.2"/><circle cx="839" cy="560" r="0.8"/><circle cx="49" cy="1321" r="1.2"/><circle cx="909" cy="668" r="0.8"/><circle cx="299" cy="220" r="1.2"/></g>
<path d="M 726.8 335.3 L 648.5 364.3 L 705.2 422.9 L 622.1 414.5 L 627.2 489.1 L 565.2 443.1 L 545.9 510.9 L 511.7 450.4 L 446.4 490.6 L 457.7 417.7 L 380.8 422.5 L 431.7 356.6 L 357.4 333.6 L 425.5 302.7 L 382.7 237.1 L 456.3 244.0 L 446.8 172.7 L 503.8 217.5 L 534.1 141.8 L 569.9 210.9 L 633.4 167.7 L 623.5 243.0 L 702.9 236.4 L 657.3 300.7 Z" fill="#BF9631" opacity="1.00"/>
<path d="M 599.3 330.0 L 595.2 359.0 L 575.1 380.8 L 547.7 393.7 L 519.8 383.1 L 495.6 369.4 L 484.7 343.6 L 482.1 315.7 L 489.5 285.3 L 518.1 272.2 L 547.1 271.2 L 572.6 282.8 L 597.3 299.9 Z" fill="#EFE4CF" opacity="1.00"/>
<text x="540.0" y="305.0" text-anchor="middle" dominant-baseline="middle" font-family="Arial, serif" font-size="44" font-weight="700" fill="#20201C" transform="rotate(90.0 540.0 305.0)">THIRD</text>
<path d="M 349.5 700.0 L 424.8 668.8 L 495.4 680.6 L 581.6 635.7 L 711.6 624.7 L 636.4 679.2 L 713.8 713.9 L 579.4 712.7 L 488.9 750.1 L 440.8 707.9 L 349.5 700.0" fill="none" stroke="#20201C" stroke-width="5" stroke-linecap="round" stroke-linejoin="round"/>
<path d="M 509.7 680.7 L 540.0 626.9 L 565.6 679.7" fill="none" stroke="#20201C" stroke-width="5" stroke-linecap="round" stroke-linejoin="round"/>
<text x="540.0" y="920.0" text-anchor="middle" dominant-baseline="middle" font-family="Bookman Old Style, serif" font-size="70" font-weight="700" fill="#EFE4CF">things we keep</text>
<text x="540.0" y="1004.0" text-anchor="middle" dominant-baseline="middle" font-family="Bookman Old Style, serif" font-size="70" font-weight="700" fill="#EFE4CF">coming back to</text>
<text x="540.0" y="1160.0" text-anchor="middle" dominant-baseline="middle" font-family="Arial, serif" font-size="42" font-weight="700" fill="#20201C">THIRD BUTTON</text>
</svg>