<svg xmlns="http://www.w3.org/2000/svg" width="1080" height="1350" viewBox="0 0 1080 1350">
<rect width="1080" height="1350" fill="#A3A787"/>
<g fill="#EFE4CF" opacity="0.055"><circle cx="411" cy="1159" r="1.8"/><circle cx="10" cy="769" r="1.2"/><circle cx="456" cy="920" r="1.2"/><circle cx="897" cy="747" r="1.8"/><circle cx="625" cy="685" r="0.8"/><circle cx="638" cy="922" r="0.8"/><circle cx="164" cy="994" r="1.8"/><circle cx="473" cy="762" r="1.2"/><circle cx="455" cy="1303" r="0.8"/><circle cx="625" cy="1128" r="1.8"/><circle cx="571" cy="186" r="0.8"/><circle cx="460" cy="83" r="1.2"/><circle cx="420" cy="456" r="1.8"/><circle cx="514" cy="369" r="0.8"/><circle cx="709" cy="1234" r="0.8"/><circle cx="811" cy="1137" r="1.2"/><circle cx="268" cy="43" r="1.8"/><circle cx="403" cy="479" r="0.8"/><circle cx="330" cy="930" r="1.2"/><circle cx="411" cy="627" r="0.8"/><circle cx="638" cy="472" r="1.2"/><circle cx="674" cy="1141" r="0.8"/><circle cx="592" cy="1063" r="1.2"/><circle cx="483" cy="914" r="1.8"/><circle cx="28" cy="29" r="0.8"/><circle cx="41" cy="884" r="1.2"/><circle cx="849" cy="977" r="0.8"/><circle cx="199" cy="1027" r="1.8"/><circle cx="251" cy="37" r="1.2"/><circle cx="3" cy="177" r="1.8"/><circle cx="514" cy="813" r="0.8"/><circle cx="498" cy="607" r="0.8"/><circle cx="1036" cy="727" r="1.2"/><circle cx="251" cy="628" r="1.8"/><circle cx="1025" cy="1165" r="1.2"/><circle cx="360" cy="905" r="1.2"/><circle cx="611" cy="942" r="0.8"/><circle cx="515" cy="154" r="1.2"/><circle cx="286" cy="1065" r="1.8"/><circle cx="577" cy="456" r="0.8"/><circle cx="188" cy="122" r="1.8"/><circle cx="942" cy="629" r="1.2"/><circle cx="289" cy="692" r="1.2"/><circle cx="978" cy="1181" r="1.2"/><circle cx="741" cy="93" r="1.8"/><circle cx="327" cy="182" r="1.8"/><circle cx="622" cy="3" r="1.8"/><circle cx="1014" cy="616" r="0.8"/><circle cx="1035" cy="354" r="1.2"/></g>
<path d="M 252.5 560.9 L 325.9 484.9 L 460.9 450.5 L 608.6 461.6 L 725.8 417.9 L 825.0 478.8 L 746.9 550.8 L 693.2 608.5 L 505.8 637.1 L 341.7 614.1" fill="none" stroke="#20201C" stroke-width="7" stroke-linecap="round" stroke-linejoin="round"/>
<path d="M 389.0 603.9 L 358.4 704.2 L 421.9 704.2 L 439.6 607.8" fill="none" stroke="#20201C" stroke-width="7" stroke-linecap="round" stroke-linejoin="round"/>
<path d="M 610.0 616.8 L 637.9 708.5 L 701.4 699.9 L 660.6 607.8" fill="none" stroke="#20201C" stroke-width="7" stroke-linecap="round" stroke-linejoin="round"/>
<path d="M 291.5 522.2 L 208.9 472.0 L 278.9 570.9" fill="none" stroke="#20201C" stroke-width="7" stroke-linecap="round" stroke-linejoin="round"/>
<path d="M 707.5 431.9 L 728.9 364.5 L 779.4 459.1" fill="none" stroke="#20201C" stroke-width="7" stroke-linecap="round" stroke-linejoin="round"/>
<text x="535.0" y="520.0" text-anchor="middle" dominant-baseline="middle" font-family="Arial, serif" font-size="68" font-weight="700" fill="#20201C">THIRD</text>
<text x="536.0" y="598.0" text-anchor="middle" dominant-baseline="middle" font-family="Arial, serif" font-size="54" font-weight="700" fill="#20201C">BUTTON</text>
<ellipse cx="540.0" cy="912.5" rx="210.0" ry="77.5" fill="none" stroke="#20201C" stroke-width="7"/>
<text x="540.0" y="888.0" text-anchor="middle" dominant-baseline="middle" font-family="Bookman Old Style, serif" font-size="50" font-weight="700" fill="#EFE4CF">not the first</text>
<text x="540.0" y="948.0" text-anchor="middle" dominant-baseline="middle" font-family="Bookman Old Style, serif" font-size="42" font-weight="700" fill="#20201C">just familiar</text>
<text x="540.0" y="1118.0" text-anchor="middle" dominant-baseline="middle" font-family="Arial, serif" font-size="34" font-weight="700" fill="#EFE4CF">old shop air</text>
</svg>