<svg xmlns="http://www.w3.org/2000/svg" width="1080" height="1080" viewBox="0 0 1080 1080">
<rect width="1080" height="1080" fill="#A3A787"/>
<g fill="#EFE4CF" opacity="0.051"><circle cx="35" cy="390" r="1.8"/><circle cx="554" cy="41" r="1.2"/><circle cx="282" cy="592" r="1.8"/><circle cx="298" cy="127" r="1.8"/><circle cx="553" cy="927" r="1.8"/><circle cx="919" cy="425" r="0.8"/><circle cx="736" cy="600" r="1.2"/><circle cx="59" cy="598" r="0.8"/><circle cx="792" cy="195" r="1.2"/><circle cx="492" cy="803" r="1.8"/><circle cx="998" cy="397" r="1.8"/><circle cx="770" cy="576" r="1.2"/><circle cx="829" cy="387" r="1.8"/><circle cx="284" cy="1034" r="1.2"/><circle cx="1014" cy="110" r="0.8"/><circle cx="434" cy="975" r="1.2"/><circle cx="233" cy="904" r="1.2"/><circle cx="360" cy="770" r="1.8"/><circle cx="914" cy="560" r="1.2"/><circle cx="928" cy="139" r="1.8"/><circle cx="1011" cy="878" r="1.8"/><circle cx="390" cy="960" r="0.8"/><circle cx="317" cy="344" r="0.8"/><circle cx="100" cy="546" r="1.2"/><circle cx="278" cy="516" r="1.2"/><circle cx="544" cy="1040" r="1.8"/><circle cx="330" cy="92" r="1.8"/><circle cx="941" cy="98" r="0.8"/><circle cx="750" cy="234" r="1.8"/><circle cx="671" cy="411" r="1.2"/><circle cx="313" cy="285" r="1.8"/><circle cx="34" cy="432" r="0.8"/><circle cx="581" cy="275" r="0.8"/><circle cx="1037" cy="695" r="1.2"/><circle cx="620" cy="528" r="1.2"/><circle cx="528" cy="424" r="1.8"/><circle cx="288" cy="318" r="1.2"/><circle cx="886" cy="575" r="1.8"/><circle cx="824" cy="251" r="1.8"/><circle cx="575" cy="824" r="0.8"/></g>
<path d="M 236.0 511.8 L 314.7 434.4 L 451.1 401.1 L 626.6 418.6 L 742.6 371.2 L 849.3 430.9 L 763.3 507.3 L 712.5 572.3 L 507.3 595.0 L 332.4 564.0" fill="none" stroke="#20201C" stroke-width="8" stroke-linecap="round" stroke-linejoin="round"/>
<path d="M 383.0 555.8 L 349.7 658.8 L 409.1 660.7 L 444.6 568.2" fill="none" stroke="#20201C" stroke-width="8" stroke-linecap="round" stroke-linejoin="round"/>
<path d="M 621.0 569.0 L 650.7 663.2 L 710.1 656.3 L 682.6 568.2" fill="none" stroke="#20201C" stroke-width="8" stroke-linecap="round" stroke-linejoin="round"/>
<path d="M 278.0 472.2 L 188.7 421.2 L 255.1 524.3" fill="none" stroke="#20201C" stroke-width="8" stroke-linecap="round" stroke-linejoin="round"/>
<path d="M 726.0 379.8 L 748.7 311.2 L 794.1 409.9" fill="none" stroke="#20201C" stroke-width="8" stroke-linecap="round" stroke-linejoin="round"/>
<text x="540.0" y="785.0" text-anchor="middle" dominant-baseline="middle" font-family="Bookman Old Style, serif" font-size="96" font-weight="700" fill="#EFE4CF">TB</text>
</svg>