<svg xmlns="http://www.w3.org/2000/svg" width="1800" height="2400" viewBox="0 0 1800 2400">
<rect width="1800" height="2400" fill="#F3E8D2"/>
<g opacity="0.05" fill="#252521"><circle cx="88" cy="953" r="2"/><circle cx="943" cy="503" r="1.5"/><circle cx="1004" cy="739" r="1"/><circle cx="1328" cy="436" r="1.5"/><circle cx="1097" cy="1219" r="1"/><circle cx="1555" cy="517" r="2"/><circle cx="754" cy="578" r="1"/><circle cx="1120" cy="1401" r="2"/><circle cx="279" cy="1987" r="2"/><circle cx="1298" cy="655" r="2"/><circle cx="1483" cy="335" r="2"/><circle cx="304" cy="132" r="1.5"/><circle cx="139" cy="246" r="2"/><circle cx="178" cy="1714" r="2"/><circle cx="1133" cy="1735" r="2"/><circle cx="1160" cy="4" r="2"/><circle cx="1006" cy="2138" r="1"/><circle cx="1729" cy="830" r="1.5"/><circle cx="98" cy="1641" r="2"/><circle cx="1032" cy="1849" r="1.5"/><circle cx="1020" cy="886" r="2"/><circle cx="499" cy="523" r="2"/><circle cx="1374" cy="6" r="1.5"/><circle cx="710" cy="458" r="2"/><circle cx="993" cy="2335" r="1.5"/><circle cx="1193" cy="322" r="2"/><circle cx="346" cy="1781" r="1.5"/><circle cx="307" cy="834" r="1"/><circle cx="320" cy="2316" r="1.5"/><circle cx="516" cy="618" r="2"/><circle cx="1207" cy="762" r="1.5"/><circle cx="1201" cy="1324" r="2"/><circle cx="1581" cy="546" r="2"/><circle cx="266" cy="1852" r="2"/><circle cx="345" cy="201" r="1"/><circle cx="570" cy="1862" r="2"/><circle cx="850" cy="2182" r="2"/><circle cx="1470" cy="152" r="2"/><circle cx="31" cy="714" r="1.5"/><circle cx="828" cy="463" r="1.5"/><circle cx="473" cy="1768" r="2"/><circle cx="167" cy="559" r="1.5"/><circle cx="1641" cy="704" r="1.5"/><circle cx="1459" cy="644" r="1.5"/><circle cx="1551" cy="2164" r="1"/><circle cx="734" cy="825" r="1.5"/><circle cx="351" cy="556" r="1.5"/><circle cx="437" cy="370" r="1"/><circle cx="924" cy="1696" r="1.5"/><circle cx="414" cy="2283" r="1.5"/><circle cx="554" cy="1710" r="2"/><circle cx="89" cy="88" r="1"/><circle cx="263" cy="1446" r="2"/><circle cx="472" cy="1686" r="1"/><circle cx="1302" cy="1415" r="1"/><circle cx="1720" cy="67" r="2"/><circle cx="1019" cy="1315" r="2"/><circle cx="593" cy="858" r="2"/><circle cx="198" cy="1811" r="1"/><circle cx="892" cy="581" r="1.5"/><circle cx="1109" cy="2123" r="2"/><circle cx="1339" cy="171" r="1.5"/><circle cx="337" cy="2353" r="1"/><circle cx="1651" cy="293" r="1.5"/><circle cx="941" cy="1911" r="1"/><circle cx="485" cy="372" r="2"/><circle cx="1688" cy="2108" r="1"/><circle cx="1743" cy="1695" r="1.5"/><circle cx="1182" cy="226" r="2"/><circle cx="1432" cy="1788" r="1.5"/><circle cx="940" cy="2035" r="1"/><circle cx="588" cy="197" r="1"/><circle cx="180" cy="1946" r="1.5"/><circle cx="801" cy="332" r="1.5"/><circle cx="1281" cy="2346" r="1"/><circle cx="1689" cy="2083" r="2"/><circle cx="94" cy="576" r="2"/><circle cx="1357" cy="2262" r="2"/><circle cx="99" cy="2306" r="1.5"/><circle cx="562" cy="2215" r="2"/><circle cx="552" cy="1988" r="1.5"/><circle cx="887" cy="632" r="1.5"/><circle cx="942" cy="1348" r="1"/><circle cx="411" cy="393" r="2"/><circle cx="1073" cy="1204" r="1"/><circle cx="647" cy="1967" r="2"/><circle cx="1314" cy="1882" r="2"/><circle cx="61" cy="1979" r="1"/><circle cx="543" cy="1476" r="2"/><circle cx="999" cy="688" r="1.5"/><circle cx="1081" cy="77" r="1.5"/><circle cx="972" cy="1224" r="1"/><circle cx="904" cy="1240" r="1.5"/><circle cx="1538" cy="2207" r="2"/><circle cx="1538" cy="336" r="1.5"/><circle cx="111" cy="515" r="2"/><circle cx="1775" cy="1129" r="2"/><circle cx="1645" cy="1278" r="1.5"/><circle cx="197" cy="676" r="1.5"/><circle cx="746" cy="2210" r="1.5"/><circle cx="1584" cy="1760" r="2"/><circle cx="193" cy="941" r="1.5"/><circle cx="1250" cy="950" r="1.5"/><circle cx="1267" cy="2140" r="1.5"/><circle cx="1446" cy="1110" r="2"/><circle cx="986" cy="1252" r="2"/><circle cx="281" cy="591" r="2"/><circle cx="94" cy="1925" r="2"/><circle cx="1086" cy="113" r="1.5"/><circle cx="198" cy="903" r="2"/><circle cx="1156" cy="1694" r="2"/><circle cx="1666" cy="913" r="1"/><circle cx="1340" cy="1334" r="2"/><circle cx="1577" cy="1517" r="1.5"/><circle cx="1133" cy="617" r="1"/><circle cx="307" cy="788" r="2"/><circle cx="361" cy="492" r="1"/><circle cx="874" cy="333" r="1.5"/><circle cx="935" cy="1574" r="2"/><circle cx="323" cy="1494" r="2"/><circle cx="407" cy="1373" r="2"/><circle cx="133" cy="1363" r="1"/><circle cx="514" cy="614" r="1.5"/><circle cx="628" cy="200" r="2"/><circle cx="487" cy="287" r="1"/><circle cx="148" cy="975" r="2"/><circle cx="800" cy="2371" r="1.5"/><circle cx="1738" cy="2328" r="1"/><circle cx="690" cy="115" r="1"/><circle cx="520" cy="1088" r="1.5"/><circle cx="543" cy="2296" r="2"/><circle cx="650" cy="2182" r="2"/><circle cx="472" cy="1554" r="2"/><circle cx="333" cy="607" r="1.5"/><circle cx="1622" cy="2358" r="2"/><circle cx="1767" cy="1714" r="1.5"/><circle cx="1325" cy="1077" r="2"/><circle cx="720" cy="2311" r="1"/><circle cx="1636" cy="1538" r="2"/><circle cx="1252" cy="260" r="1.5"/><circle cx="70" cy="346" r="2"/><circle cx="696" cy="82" r="1.5"/><circle cx="1517" cy="948" r="1.5"/><circle cx="558" cy="836" r="1"/><circle cx="932" cy="740" r="1.5"/><circle cx="102" cy="797" r="1"/><circle cx="1485" cy="2034" r="1.5"/><circle cx="1768" cy="1957" r="1"/><circle cx="845" cy="512" r="1.5"/><circle cx="1473" cy="227" r="1"/><circle cx="150" cy="799" r="1"/><circle cx="1057" cy="269" r="2"/><circle cx="486" cy="1117" r="2"/><circle cx="82" cy="2311" r="1"/><circle cx="195" cy="477" r="2"/><circle cx="1560" cy="1758" r="1.5"/><circle cx="681" cy="517" r="1.5"/><circle cx="501" cy="2306" r="2"/><circle cx="1140" cy="172" r="1.5"/><circle cx="1181" cy="2041" r="2"/><circle cx="996" cy="1648" r="2"/><circle cx="997" cy="206" r="2"/><circle cx="620" cy="1876" r="1.5"/><circle cx="72" cy="638" r="2"/><circle cx="416" cy="2320" r="1"/><circle cx="23" cy="623" r="2"/><circle cx="41" cy="509" r="1.5"/><circle cx="877" cy="1566" r="2"/><circle cx="860" cy="814" r="1.5"/><circle cx="531" cy="26" r="1.5"/><circle cx="1703" cy="1673" r="1"/><circle cx="573" cy="611" r="2"/><circle cx="82" cy="1452" r="1"/><circle cx="58" cy="275" r="2"/><circle cx="1481" cy="783" r="2"/><circle cx="805" cy="1566" r="2"/><circle cx="1100" cy="455" r="1.5"/><circle cx="1189" cy="1911" r="1.5"/><circle cx="1199" cy="1554" r="1.5"/><circle cx="1223" cy="1164" r="2"/><circle cx="793" cy="1149" r="1.5"/><circle cx="683" cy="272" r="1"/><circle cx="288" cy="567" r="1.5"/><circle cx="1454" cy="2147" r="1"/><circle cx="148" cy="2048" r="1"/><circle cx="329" cy="569" r="2"/><circle cx="1211" cy="156" r="2"/><circle cx="321" cy="2335" r="1.5"/><circle cx="1527" cy="1613" r="1"/><circle cx="1745" cy="2035" r="1"/><circle cx="1530" cy="1813" r="1"/><circle cx="1772" cy="162" r="1"/><circle cx="512" cy="894" r="2"/><circle cx="371" cy="688" r="2"/><circle cx="478" cy="1306" r="1"/><circle cx="959" cy="844" r="1"/><circle cx="20" cy="702" r="1"/><circle cx="1283" cy="520" r="1"/><circle cx="1493" cy="747" r="1"/><circle cx="36" cy="662" r="2"/><circle cx="382" cy="121" r="2"/><circle cx="1166" cy="999" r="2"/><circle cx="744" cy="1774" r="1"/><circle cx="302" cy="2216" r="2"/><circle cx="1613" cy="2186" r="1"/><circle cx="798" cy="1498" r="2"/><circle cx="1788" cy="1593" r="1"/><circle cx="713" cy="1410" r="1.5"/><circle cx="174" cy="335" r="1.5"/><circle cx="160" cy="181" r="1.5"/><circle cx="257" cy="2072" r="1.5"/><circle cx="1176" cy="1965" r="1.5"/><circle cx="126" cy="1494" r="1.5"/><circle cx="1691" cy="1724" r="1"/><circle cx="296" cy="2215" r="1.5"/><circle cx="465" cy="1976" r="1"/><circle cx="538" cy="1589" r="1.5"/><circle cx="66" cy="1547" r="2"/><circle cx="158" cy="1207" r="2"/><circle cx="466" cy="2212" r="1"/><circle cx="1572" cy="1846" r="1.5"/><circle cx="375" cy="2247" r="1"/><circle cx="1587" cy="1900" r="1"/><circle cx="1426" cy="435" r="2"/><circle cx="1037" cy="215" r="1.5"/><circle cx="120" cy="1749" r="1.5"/><circle cx="231" cy="719" r="2"/><circle cx="1074" cy="577" r="1.5"/><circle cx="1286" cy="1407" r="2"/><circle cx="1" cy="1091" r="1"/><circle cx="306" cy="1146" r="2"/><circle cx="956" cy="1965" r="2"/><circle cx="1009" cy="86" r="1.5"/><circle cx="683" cy="532" r="2"/><circle cx="1047" cy="2079" r="1.5"/><circle cx="824" cy="2043" r="2"/><circle cx="206" cy="1711" r="2"/><circle cx="1794" cy="2332" r="1"/><circle cx="289" cy="2199" r="1.5"/><circle cx="482" cy="1935" r="2"/><circle cx="1792" cy="259" r="1"/><circle cx="404" cy="2063" r="2"/><circle cx="1103" cy="252" r="2"/><circle cx="47" cy="131" r="1"/><circle cx="1573" cy="1658" r="1"/><circle cx="1793" cy="1333" r="1.5"/><circle cx="1082" cy="833" r="1.5"/><circle cx="1436" cy="1905" r="2"/><circle cx="92" cy="1093" r="2"/><circle cx="512" cy="1463" r="1.5"/><circle cx="1221" cy="622" r="1.5"/><circle cx="1203" cy="1222" r="1"/><circle cx="38" cy="2023" r="1.5"/><circle cx="988" cy="458" r="2"/><circle cx="494" cy="319" r="1.5"/><circle cx="1300" cy="2018" r="1"/><circle cx="1097" cy="926" r="1.5"/><circle cx="965" cy="923" r="1"/><circle cx="1742" cy="267" r="1"/><circle cx="1263" cy="83" r="1.5"/><circle cx="1695" cy="1574" r="1.5"/><circle cx="961" cy="1842" r="2"/><circle cx="648" cy="64" r="2"/><circle cx="1409" cy="827" r="2"/><circle cx="651" cy="1844" r="1.5"/><circle cx="1791" cy="1941" r="1.5"/><circle cx="834" cy="298" r="2"/><circle cx="1224" cy="285" r="1"/><circle cx="67" cy="1826" r="1"/><circle cx="1505" cy="874" r="1"/><circle cx="190" cy="772" r="1.5"/><circle cx="1623" cy="1006" r="1.5"/><circle cx="541" cy="2064" r="1.5"/><circle cx="161" cy="372" r="2"/><circle cx="554" cy="1619" r="1"/><circle cx="591" cy="381" r="2"/><circle cx="1174" cy="461" r="1.5"/><circle cx="359" cy="58" r="1.5"/><circle cx="1795" cy="771" r="1"/><circle cx="1404" cy="707" r="2"/><circle cx="743" cy="1961" r="1.5"/><circle cx="1273" cy="1563" r="1"/><circle cx="543" cy="1735" r="1"/><circle cx="1066" cy="962" r="2"/><circle cx="387" cy="1375" r="1.5"/><circle cx="110" cy="2157" r="2"/><circle cx="515" cy="2013" r="1"/><circle cx="1145" cy="2116" r="1.5"/><circle cx="1562" cy="1521" r="1.5"/><circle cx="1575" cy="101" r="2"/><circle cx="926" cy="1523" r="1"/><circle cx="999" cy="917" r="2"/><circle cx="104" cy="1825" r="2"/><circle cx="213" cy="180" r="1.5"/><circle cx="1073" cy="486" r="1"/><circle cx="793" cy="990" r="1.5"/><circle cx="1602" cy="1741" r="1.5"/><circle cx="1433" cy="1050" r="1.5"/><circle cx="128" cy="636" r="1"/><circle cx="605" cy="1448" r="1.5"/><circle cx="511" cy="1745" r="1"/><circle cx="193" cy="1734" r="2"/><circle cx="1773" cy="537" r="1.5"/><circle cx="876" cy="2385" r="1.5"/><circle cx="818" cy="1785" r="1"/><circle cx="792" cy="182" r="1.5"/><circle cx="940" cy="362" r="1.5"/><circle cx="1418" cy="59" r="1.5"/><circle cx="31" cy="1265" r="2"/><circle cx="547" cy="1902" r="1"/><circle cx="1592" cy="2341" r="1.5"/><circle cx="815" cy="1470" r="1.5"/><circle cx="1406" cy="1602" r="2"/><circle cx="76" cy="1039" r="1"/><circle cx="1491" cy="2123" r="2"/><circle cx="591" cy="1915" r="1.5"/><circle cx="728" cy="960" r="2"/><circle cx="478" cy="1723" r="1.5"/><circle cx="476" cy="930" r="1"/><circle cx="1478" cy="156" r="1.5"/><circle cx="577" cy="1313" r="2"/><circle cx="1721" cy="2368" r="2"/><circle cx="864" cy="0" r="1.5"/><circle cx="837" cy="668" r="2"/><circle cx="681" cy="190" r="1"/><circle cx="1447" cy="2117" r="2"/><circle cx="856" cy="1270" r="2"/><circle cx="1398" cy="487" r="1"/><circle cx="1756" cy="2008" r="2"/><circle cx="1661" cy="619" r="2"/><circle cx="1513" cy="1419" r="1.5"/><circle cx="669" cy="716" r="2"/><circle cx="1392" cy="893" r="1.5"/><circle cx="324" cy="366" r="1"/><circle cx="806" cy="520" r="1"/><circle cx="1378" cy="1856" r="1.5"/><circle cx="1229" cy="1527" r="1.5"/><circle cx="1616" cy="1486" r="1.5"/><circle cx="1730" cy="1578" r="1"/><circle cx="495" cy="956" r="2"/><circle cx="1170" cy="169" r="1.5"/><circle cx="1483" cy="607" r="2"/><circle cx="884" cy="1442" r="1"/><circle cx="1661" cy="1291" r="1"/><circle cx="1252" cy="492" r="1.5"/><circle cx="1769" cy="614" r="1"/><circle cx="1223" cy="334" r="2"/><circle cx="1545" cy="641" r="2"/><circle cx="1710" cy="999" r="1"/><circle cx="1335" cy="145" r="2"/><circle cx="1082" cy="51" r="1"/><circle cx="1097" cy="1452" r="1.5"/><circle cx="331" cy="143" r="1"/><circle cx="1264" cy="1087" r="1"/><circle cx="1132" cy="151" r="2"/><circle cx="1016" cy="135" r="1.5"/><circle cx="752" cy="1548" r="1"/><circle cx="393" cy="442" r="1"/><circle cx="532" cy="1218" r="1.5"/><circle cx="1366" cy="912" r="2"/><circle cx="564" cy="1707" r="1"/><circle cx="1649" cy="1917" r="2"/><circle cx="1014" cy="66" r="1"/><circle cx="1170" cy="312" r="1"/><circle cx="885" cy="1594" r="1.5"/><circle cx="1350" cy="1151" r="1.5"/><circle cx="676" cy="2306" r="1.5"/><circle cx="912" cy="1688" r="1"/><circle cx="747" cy="2170" r="2"/><circle cx="1486" cy="210" r="2"/><circle cx="280" cy="1386" r="2"/><circle cx="911" cy="1253" r="2"/><circle cx="1577" cy="1127" r="2"/><circle cx="1219" cy="1824" r="1"/><circle cx="1208" cy="1229" r="2"/><circle cx="159" cy="1111" r="1.5"/><circle cx="221" cy="1995" r="2"/><circle cx="1116" cy="847" r="1.5"/><circle cx="1664" cy="657" r="2"/><circle cx="1521" cy="1262" r="2"/><circle cx="172" cy="393" r="1"/><circle cx="1760" cy="435" r="1.5"/><circle cx="1441" cy="2077" r="1.5"/><circle cx="1545" cy="155" r="2"/><circle cx="1072" cy="268" r="2"/><circle cx="735" cy="1801" r="2"/><circle cx="727" cy="406" r="1.5"/><circle cx="1063" cy="1027" r="2"/><circle cx="206" cy="487" r="2"/><circle cx="231" cy="1995" r="1.5"/><circle cx="1372" cy="1486" r="2"/><circle cx="1433" cy="1485" r="1"/><circle cx="1687" cy="985" r="1.5"/><circle cx="696" cy="712" r="1"/><circle cx="216" cy="156" r="2"/><circle cx="29" cy="1531" r="2"/><circle cx="234" cy="159" r="1.5"/><circle cx="440" cy="1663" r="1"/><circle cx="1072" cy="689" r="1.5"/><circle cx="815" cy="2242" r="1.5"/></g>
<text x="900.00" y="160.00" fill="#252521" font-family="Bookman Old Style, Georgia, serif" font-size="118" font-weight="700" text-anchor="middle" dominant-baseline="middle" letter-spacing="1.5">THIRD BUTTON</text>
<text x="900.00" y="250.00" fill="#234236" font-family="Arial, Georgia, serif" font-size="48" font-weight="700" text-anchor="middle" dominant-baseline="middle" letter-spacing="1.5">12 primitive marks for ordinary things</text>
<path d="M 154.00 374.00 L 470.00 368.00 L 486.00 746.00 L 144.00 738.00 L 154.00 374.00" fill="none" stroke="#252521" stroke-width="4" stroke-linecap="round" stroke-linejoin="round" opacity="0.550"/>
<path d="M 418.26 538.68 L 382.16 550.60 L 397.61 574.08 L 374.40 578.10 L 391.25 613.23 L 357.13 590.28 L 346.45 620.68 L 331.17 600.16 L 316.62 635.57 L 305.34 604.04 L 280.47 615.16 L 280.25 596.18 L 244.78 606.51 L 262.40 572.51 L 237.85 571.33 L 254.71 547.48 L 218.83 538.76 L 254.13 526.89 L 234.78 506.95 L 259.80 502.94 L 242.69 470.08 L 281.48 481.99 L 282.35 458.75 L 305.70 474.14 L 320.84 432.94 L 326.98 474.15 L 350.20 457.84 L 351.68 481.45 L 391.03 468.14 L 372.58 504.58 L 397.53 504.58 L 381.50 521.29 Z" fill="#C49A32" opacity="1.000"/>
<path d="M 371.43 538.00 L 359.80 553.58 L 359.24 573.44 L 344.97 586.44 L 326.58 592.35 L 307.08 594.25 L 293.82 578.14 L 276.64 571.87 L 273.56 553.81 L 266.93 538.00 L 268.06 520.19 L 275.71 503.35 L 291.97 494.65 L 309.01 492.68 L 326.97 481.48 L 343.13 492.74 L 351.90 508.72 L 363.68 521.01 Z" fill="#F3E8D2" opacity="1.000"/>
<path d="M 340.55 538.00 L 342.22 551.24 L 332.92 561.06 L 320.16 564.03 L 307.96 561.84 L 299.64 553.38 L 292.33 544.08 L 294.56 532.47 L 295.67 519.10 L 307.00 511.64 L 320.30 510.80 L 329.95 519.24 L 342.12 524.82 Z" fill="#C49A32" opacity="1.000"/>
<text x="320.00" y="698.00" fill="#252521" font-family="Arial, Georgia, serif" font-size="36" font-weight="700" text-anchor="middle" dominant-baseline="middle" letter-spacing="1.5">SUN</text>
<text x="320.00" y="744.00" fill="#234236" font-family="Arial, Georgia, serif" font-size="30" font-weight="700" text-anchor="middle" dominant-baseline="middle" letter-spacing="1.5">TB-01</text>
<path d="M 554.00 374.00 L 870.00 368.00 L 886.00 746.00 L 544.00 738.00 L 554.00 374.00" fill="none" stroke="#252521" stroke-width="4" stroke-linecap="round" stroke-linejoin="round" opacity="0.550"/>
<path d="M 614.10 538.58 L 679.61 505.17 L 734.64 534.81 L 810.85 488.46 L 768.27 546.60 L 822.42 582.92 L 733.49 562.91 L 696.21 600.96 L 665.28 558.32 Z" fill="#252521" opacity="1.000"/>
<path d="M 698.45 517.52 L 715.27 480.84 L 728.03 525.02 Z" fill="#252521" opacity="1.000"/>
<text x="720.00" y="698.00" fill="#252521" font-family="Arial, Georgia, serif" font-size="36" font-weight="700" text-anchor="middle" dominant-baseline="middle" letter-spacing="1.5">BIRD</text>
<text x="720.00" y="744.00" fill="#234236" font-family="Arial, Georgia, serif" font-size="30" font-weight="700" text-anchor="middle" dominant-baseline="middle" letter-spacing="1.5">TB-02</text>
<path d="M 954.00 374.00 L 1270.00 368.00 L 1286.00 746.00 L 944.00 738.00 L 954.00 374.00" fill="none" stroke="#252521" stroke-width="4" stroke-linecap="round" stroke-linejoin="round" opacity="0.550"/>
<path d="M 1017.89 552.30 L 1046.82 514.50 L 1089.16 498.86 L 1151.05 507.71 L 1192.27 490.95 L 1219.07 506.83 L 1192.89 548.01 L 1164.07 556.16 L 1155.96 620.42 L 1130.32 619.01 L 1128.10 563.49 L 1082.62 566.52 L 1067.63 613.40 L 1050.23 615.22 L 1056.99 554.03 Z" fill="#234236" opacity="1.000"/>
<path d="M 1178.51 495.19 L 1198.57 468.83 L 1207.27 510.45 Z" fill="#234236" opacity="1.000"/>
<text x="1120.00" y="698.00" fill="#252521" font-family="Arial, Georgia, serif" font-size="36" font-weight="700" text-anchor="middle" dominant-baseline="middle" letter-spacing="1.5">HORSE</text>
<text x="1120.00" y="744.00" fill="#234236" font-family="Arial, Georgia, serif" font-size="30" font-weight="700" text-anchor="middle" dominant-baseline="middle" letter-spacing="1.5">TB-03</text>
<path d="M 1354.00 374.00 L 1670.00 368.00 L 1686.00 746.00 L 1344.00 738.00 L 1354.00 374.00" fill="none" stroke="#252521" stroke-width="4" stroke-linecap="round" stroke-linejoin="round" opacity="0.550"/>
<path d="M 1413.30 545.88 L 1457.17 500.51 L 1539.78 492.19 L 1610.17 530.28 L 1549.18 579.66 L 1467.32 582.07 Z" fill="#6F8497" opacity="1.000"/>
<path d="M 1572.61 536.81 L 1621.46 487.47 L 1625.47 582.61 Z" fill="#6F8497" opacity="1.000"/>
<path d="M 1491.93 496.96 L 1510.99 543.25 L 1490.08 585.32 Z" fill="#6F8497" opacity="1.000"/>
<text x="1520.00" y="698.00" fill="#252521" font-family="Arial, Georgia, serif" font-size="36" font-weight="700" text-anchor="middle" dominant-baseline="middle" letter-spacing="1.5">FISH</text>
<text x="1520.00" y="744.00" fill="#234236" font-family="Arial, Georgia, serif" font-size="30" font-weight="700" text-anchor="middle" dominant-baseline="middle" letter-spacing="1.5">TB-04</text>
<path d="M 154.00 964.00 L 470.00 958.00 L 486.00 1336.00 L 144.00 1328.00 L 154.00 964.00" fill="none" stroke="#252521" stroke-width="4" stroke-linecap="round" stroke-linejoin="round" opacity="0.550"/>
<path d="M 229.60 1140.95 L 254.33 1110.08 L 296.31 1139.15 L 328.46 1180.15 L 359.36 1137.71 L 383.36 1105.47 L 419.48 1132.57 L 391.68 1170.44 L 354.82 1199.40 L 311.37 1165.69 L 285.51 1132.88 L 256.80 1162.93 Z" fill="#A9472D" opacity="1.000"/>
<text x="320.00" y="1288.00" fill="#252521" font-family="Arial, Georgia, serif" font-size="36" font-weight="700" text-anchor="middle" dominant-baseline="middle" letter-spacing="1.5">SNAKE</text>
<text x="320.00" y="1334.00" fill="#234236" font-family="Arial, Georgia, serif" font-size="30" font-weight="700" text-anchor="middle" dominant-baseline="middle" letter-spacing="1.5">TB-05</text>
<path d="M 554.00 964.00 L 870.00 958.00 L 886.00 1336.00 L 544.00 1328.00 L 554.00 964.00" fill="none" stroke="#252521" stroke-width="4" stroke-linecap="round" stroke-linejoin="round" opacity="0.550"/>
<path d="M 616.62 1135.28 L 664.65 1103.95 L 727.53 1116.04 L 789.63 1100.84 L 816.95 1125.26 L 765.34 1149.91 L 705.35 1143.05 L 655.50 1162.35 Z" fill="#9BAA88" opacity="1.000"/>
<path d="M 668.12 1110.86 L 639.61 1063.77 L 689.28 1113.68 Z" fill="#9BAA88" opacity="1.000"/>
<path d="M 715.20 1109.53 L 751.27 1074.06 L 740.58 1118.54 Z" fill="#9BAA88" opacity="1.000"/>
<path d="M 718.28 1141.61 L 741.88 1193.70 L 697.99 1146.43 Z" fill="#9BAA88" opacity="1.000"/>
<path d="M 655.64 1157.10 L 626.23 1191.91 L 679.09 1151.42 Z" fill="#9BAA88" opacity="1.000"/>
<text x="720.00" y="1288.00" fill="#252521" font-family="Arial, Georgia, serif" font-size="36" font-weight="700" text-anchor="middle" dominant-baseline="middle" letter-spacing="1.5">LIZARD</text>
<text x="720.00" y="1334.00" fill="#234236" font-family="Arial, Georgia, serif" font-size="30" font-weight="700" text-anchor="middle" dominant-baseline="middle" letter-spacing="1.5">TB-06</text>
<path d="M 954.00 964.00 L 1270.00 958.00 L 1286.00 1336.00 L 944.00 1328.00 L 954.00 964.00" fill="none" stroke="#252521" stroke-width="4" stroke-linecap="round" stroke-linejoin="round" opacity="0.550"/>
<path d="M 1033.57 1145.71 L 1059.78 1100.97 L 1119.88 1088.84 L 1183.61 1102.48 L 1210.20 1150.39 L 1185.74 1176.24 L 1118.62 1192.48 L 1061.36 1177.17 Z" fill="#C49A32" opacity="1.000"/>
<path d="M 1058.00 1104.74 L 1040.77 1068.12 L 1077.56 1094.85 Z" fill="#C49A32" opacity="1.000"/>
<path d="M 1174.02 1110.49 L 1204.53 1080.35 L 1192.84 1125.00 Z" fill="#C49A32" opacity="1.000"/>
<text x="1120.00" y="1288.00" fill="#252521" font-family="Arial, Georgia, serif" font-size="36" font-weight="700" text-anchor="middle" dominant-baseline="middle" letter-spacing="1.5">ANIMAL</text>
<text x="1120.00" y="1334.00" fill="#234236" font-family="Arial, Georgia, serif" font-size="30" font-weight="700" text-anchor="middle" dominant-baseline="middle" letter-spacing="1.5">TB-07</text>
<path d="M 1354.00 964.00 L 1670.00 958.00 L 1686.00 1336.00 L 1344.00 1328.00 L 1354.00 964.00" fill="none" stroke="#252521" stroke-width="4" stroke-linecap="round" stroke-linejoin="round" opacity="0.550"/>
<path d="M 1518.45 1024.70 L 1543.56 1090.63 L 1615.19 1095.11 L 1560.75 1143.46 L 1581.86 1213.48 L 1519.01 1170.43 L 1455.17 1207.72 L 1476.24 1137.64 L 1413.31 1094.66 L 1489.13 1096.44 Z" fill="#252521" opacity="1.000"/>
<text x="1520.00" y="1288.00" fill="#252521" font-family="Arial, Georgia, serif" font-size="36" font-weight="700" text-anchor="middle" dominant-baseline="middle" letter-spacing="1.5">STAR</text>
<text x="1520.00" y="1334.00" fill="#234236" font-family="Arial, Georgia, serif" font-size="30" font-weight="700" text-anchor="middle" dominant-baseline="middle" letter-spacing="1.5">TB-08</text>
<path d="M 154.00 1554.00 L 470.00 1548.00 L 486.00 1926.00 L 144.00 1918.00 L 154.00 1554.00" fill="none" stroke="#252521" stroke-width="4" stroke-linecap="round" stroke-linejoin="round" opacity="0.550"/>
<path d="M 362.99 1724.06 L 353.56 1753.86 L 319.65 1767.21 L 285.89 1760.94 L 265.88 1733.91 L 266.56 1693.86 L 293.14 1666.96 L 328.53 1665.86 L 355.50 1687.85 Z" fill="#234236" opacity="1.000"/>
<path d="M 323.14 1619.85 L 341.64 1684.40 L 421.87 1708.55 L 350.35 1734.18 L 359.01 1816.63 L 314.25 1752.05 L 244.75 1796.63 L 282.60 1731.57 L 217.99 1691.09 L 289.05 1679.26 Z" fill="#234236" opacity="1.000"/>
<text x="320.00" y="1878.00" fill="#252521" font-family="Arial, Georgia, serif" font-size="36" font-weight="700" text-anchor="middle" dominant-baseline="middle" letter-spacing="1.5">FOLK MARK</text>
<text x="320.00" y="1924.00" fill="#234236" font-family="Arial, Georgia, serif" font-size="30" font-weight="700" text-anchor="middle" dominant-baseline="middle" letter-spacing="1.5">TB-09</text>
<path d="M 554.00 1554.00 L 870.00 1548.00 L 886.00 1926.00 L 544.00 1918.00 L 554.00 1554.00" fill="none" stroke="#252521" stroke-width="4" stroke-linecap="round" stroke-linejoin="round" opacity="0.550"/>
<path d="M 667.96 1812.93 L 670.77 1712.86 L 642.58 1659.65 L 672.87 1640.40 L 700.63 1700.93 L 693.18 1624.59 L 724.32 1618.30 L 730.48 1701.61 L 753.91 1632.82 L 775.44 1647.27 L 761.06 1714.38 L 796.78 1677.72 L 817.71 1696.87 L 770.62 1765.40 L 750.74 1807.81 Z" fill="#6F8497" opacity="1.000"/>
<text x="720.00" y="1878.00" fill="#252521" font-family="Arial, Georgia, serif" font-size="36" font-weight="700" text-anchor="middle" dominant-baseline="middle" letter-spacing="1.5">HAND</text>
<text x="720.00" y="1924.00" fill="#234236" font-family="Arial, Georgia, serif" font-size="30" font-weight="700" text-anchor="middle" dominant-baseline="middle" letter-spacing="1.5">TB-10</text>
<path d="M 954.00 1554.00 L 1270.00 1548.00 L 1286.00 1926.00 L 944.00 1918.00 L 954.00 1554.00" fill="none" stroke="#252521" stroke-width="4" stroke-linecap="round" stroke-linejoin="round" opacity="0.550"/>
<path d="M 1011.25 1796.45 L 1064.71 1687.95 L 1097.04 1740.40 L 1141.37 1649.13 L 1226.30 1792.59 Z" fill="#A9472D" opacity="1.000"/>
<path d="M 1057.89 1798.07 L 1104.56 1733.39 L 1144.27 1799.08 Z" fill="#A9472D" opacity="1.000"/>
<text x="1120.00" y="1878.00" fill="#252521" font-family="Arial, Georgia, serif" font-size="36" font-weight="700" text-anchor="middle" dominant-baseline="middle" letter-spacing="1.5">HILL</text>
<text x="1120.00" y="1924.00" fill="#234236" font-family="Arial, Georgia, serif" font-size="30" font-weight="700" text-anchor="middle" dominant-baseline="middle" letter-spacing="1.5">TB-11</text>
<path d="M 1354.00 1554.00 L 1670.00 1548.00 L 1686.00 1926.00 L 1344.00 1918.00 L 1354.00 1554.00" fill="none" stroke="#252521" stroke-width="4" stroke-linecap="round" stroke-linejoin="round" opacity="0.550"/>
<path d="M 1520.01 1622.52 L 1563.44 1662.28 L 1582.35 1723.92 L 1544.55 1785.36 L 1494.05 1814.58 L 1449.70 1766.89 L 1448.41 1705.23 L 1479.26 1652.06 Z" fill="#9BAA88" opacity="1.000"/>
<path d="M 1519.39 1632.41 L 1498.95 1806.60 Z" fill="#9BAA88" opacity="1.000"/>
<text x="1520.00" y="1878.00" fill="#252521" font-family="Arial, Georgia, serif" font-size="36" font-weight="700" text-anchor="middle" dominant-baseline="middle" letter-spacing="1.5">SEED</text>
<text x="1520.00" y="1924.00" fill="#234236" font-family="Arial, Georgia, serif" font-size="30" font-weight="700" text-anchor="middle" dominant-baseline="middle" letter-spacing="1.5">TB-12</text>
<text x="900.00" y="2242.00" fill="#A9472D" font-family="Bookman Old Style, Georgia, serif" font-size="54" font-weight="400" text-anchor="middle" dominant-baseline="middle" letter-spacing="1.5">things we keep coming back to</text>
</svg>