<svg xmlns="http://www.w3.org/2000/svg" width="1080" height="1350" viewBox="0 0 1080 1350">
<rect width="1080" height="1350" fill="#F3E8D2"/>
<g opacity="0.06" fill="#252521"><circle cx="628" cy="531" r="1.5"/><circle cx="830" cy="255" r="1.5"/><circle cx="326" cy="617" r="1"/><circle cx="489" cy="30" r="1.5"/><circle cx="944" cy="860" r="1"/><circle cx="378" cy="1074" r="2"/><circle cx="8" cy="710" r="1.5"/><circle cx="162" cy="772" r="2"/><circle cx="271" cy="1251" r="1"/><circle cx="975" cy="348" r="1.5"/><circle cx="454" cy="450" r="1"/><circle cx="736" cy="507" r="2"/><circle cx="297" cy="84" r="1.5"/><circle cx="905" cy="459" r="2"/><circle cx="496" cy="303" r="1"/><circle cx="523" cy="37" r="1"/><circle cx="1029" cy="190" r="2"/><circle cx="460" cy="605" r="2"/><circle cx="42" cy="150" r="1"/><circle cx="850" cy="447" r="1.5"/><circle cx="162" cy="429" r="1"/><circle cx="671" cy="825" r="1"/><circle cx="1002" cy="1023" r="1"/><circle cx="436" cy="31" r="2"/><circle cx="828" cy="274" r="2"/><circle cx="1031" cy="668" r="2"/><circle cx="912" cy="60" r="1.5"/><circle cx="905" cy="757" r="1"/><circle cx="212" cy="451" r="2"/><circle cx="53" cy="387" r="1.5"/><circle cx="543" cy="498" r="1.5"/><circle cx="789" cy="967" r="2"/><circle cx="598" cy="768" r="1.5"/><circle cx="356" cy="378" r="1.5"/><circle cx="51" cy="987" r="1"/><circle cx="630" cy="1194" r="1"/><circle cx="808" cy="484" r="1.5"/><circle cx="1007" cy="1114" r="1"/><circle cx="2" cy="1312" r="1"/><circle cx="520" cy="1248" r="2"/><circle cx="596" cy="1226" r="1.5"/><circle cx="521" cy="280" r="2"/><circle cx="601" cy="890" r="2"/><circle cx="971" cy="994" r="2"/><circle cx="139" cy="1157" r="1"/><circle cx="999" cy="455" r="1.5"/><circle cx="999" cy="328" r="2"/><circle cx="92" cy="425" r="2"/><circle cx="168" cy="1070" r="1"/><circle cx="479" cy="558" r="2"/><circle cx="995" cy="993" r="1.5"/><circle cx="918" cy="370" r="1"/><circle cx="1071" cy="990" r="1"/><circle cx="305" cy="261" r="1.5"/><circle cx="418" cy="386" r="2"/><circle cx="980" cy="1202" r="2"/><circle cx="544" cy="300" r="2"/><circle cx="723" cy="1154" r="2"/><circle cx="73" cy="412" r="2"/><circle cx="76" cy="29" r="1"/><circle cx="497" cy="383" r="1.5"/><circle cx="282" cy="646" r="1"/><circle cx="687" cy="805" r="1"/><circle cx="842" cy="712" r="1"/><circle cx="374" cy="965" r="1"/><circle cx="858" cy="628" r="2"/><circle cx="634" cy="683" r="1.5"/><circle cx="586" cy="1088" r="2"/><circle cx="663" cy="355" r="1.5"/><circle cx="936" cy="1167" r="2"/><circle cx="91" cy="1238" r="1.5"/><circle cx="823" cy="1294" r="1.5"/><circle cx="830" cy="431" r="1.5"/><circle cx="349" cy="1303" r="1.5"/><circle cx="1046" cy="344" r="1.5"/><circle cx="466" cy="7" r="1"/><circle cx="26" cy="490" r="1"/><circle cx="774" cy="345" r="1"/><circle cx="84" cy="375" r="1"/><circle cx="927" cy="782" r="1"/><circle cx="532" cy="1132" r="1"/><circle cx="577" cy="610" r="1.5"/><circle cx="536" cy="877" r="1.5"/><circle cx="188" cy="378" r="2"/><circle cx="483" cy="784" r="1.5"/><circle cx="237" cy="294" r="2"/><circle cx="734" cy="932" r="1"/><circle cx="374" cy="740" r="2"/><circle cx="431" cy="72" r="2"/><circle cx="187" cy="844" r="1"/><circle cx="727" cy="290" r="1"/><circle cx="785" cy="1236" r="1"/><circle cx="955" cy="1306" r="1.5"/><circle cx="413" cy="338" r="2"/><circle cx="149" cy="396" r="1"/><circle cx="823" cy="1239" r="2"/><circle cx="626" cy="358" r="2"/><circle cx="876" cy="40" r="1.5"/><circle cx="529" cy="420" r="2"/><circle cx="569" cy="136" r="2"/><circle cx="397" cy="968" r="2"/><circle cx="272" cy="157" r="2"/><circle cx="566" cy="479" r="1"/><circle cx="457" cy="1260" r="1"/><circle cx="280" cy="484" r="1.5"/><circle cx="630" cy="1130" r="1"/><circle cx="260" cy="74" r="1.5"/><circle cx="948" cy="746" r="1"/><circle cx="64" cy="1192" r="1"/><circle cx="742" cy="1038" r="2"/><circle cx="478" cy="922" r="2"/><circle cx="832" cy="849" r="2"/><circle cx="758" cy="155" r="1"/><circle cx="216" cy="1118" r="1.5"/><circle cx="1022" cy="1035" r="2"/><circle cx="609" cy="545" r="1"/><circle cx="728" cy="1344" r="1.5"/><circle cx="357" cy="1002" r="1.5"/><circle cx="205" cy="1087" r="2"/><circle cx="900" cy="1120" r="1"/><circle cx="949" cy="1216" r="1"/><circle cx="408" cy="678" r="1.5"/><circle cx="743" cy="984" r="1.5"/><circle cx="437" cy="106" r="2"/><circle cx="238" cy="697" r="1"/><circle cx="936" cy="770" r="2"/><circle cx="989" cy="1263" r="1"/><circle cx="427" cy="425" r="1.5"/><circle cx="992" cy="1031" r="1.5"/><circle cx="302" cy="1265" r="1"/><circle cx="328" cy="1101" r="1"/><circle cx="780" cy="657" r="1"/><circle cx="826" cy="549" r="2"/><circle cx="484" cy="547" r="1.5"/><circle cx="978" cy="1301" r="1"/><circle cx="634" cy="212" r="1.5"/><circle cx="432" cy="528" r="1"/><circle cx="841" cy="727" r="1"/><circle cx="412" cy="336" r="1.5"/><circle cx="127" cy="463" r="1"/><circle cx="457" cy="1332" r="1"/><circle cx="447" cy="431" r="1.5"/><circle cx="484" cy="236" r="1.5"/><circle cx="832" cy="1021" r="1"/><circle cx="372" cy="1306" r="1.5"/><circle cx="313" cy="1109" r="2"/><circle cx="73" cy="516" r="2"/><circle cx="525" cy="46" r="1"/><circle cx="45" cy="205" r="1"/><circle cx="999" cy="203" r="2"/><circle cx="147" cy="319" r="1"/><circle cx="11" cy="973" r="1.5"/><circle cx="1017" cy="550" r="1"/><circle cx="573" cy="233" r="2"/><circle cx="400" cy="151" r="1.5"/><circle cx="85" cy="194" r="1.5"/><circle cx="1010" cy="1183" r="1"/><circle cx="803" cy="196" r="2"/><circle cx="636" cy="857" r="1.5"/><circle cx="15" cy="171" r="1"/><circle cx="357" cy="494" r="2"/><circle cx="853" cy="1260" r="2"/><circle cx="254" cy="568" r="2"/><circle cx="853" cy="143" r="1.5"/><circle cx="478" cy="765" r="1.5"/><circle cx="628" cy="221" r="2"/><circle cx="126" cy="469" r="1"/><circle cx="571" cy="951" r="1"/><circle cx="872" cy="638" r="1"/><circle cx="58" cy="282" r="2"/><circle cx="747" cy="1215" r="2"/><circle cx="803" cy="1234" r="2"/><circle cx="492" cy="480" r="2"/><circle cx="934" cy="520" r="1.5"/><circle cx="543" cy="989" r="1.5"/><circle cx="591" cy="532" r="2"/><circle cx="327" cy="1282" r="1.5"/><circle cx="801" cy="1140" r="1"/><circle cx="569" cy="103" r="2"/><circle cx="224" cy="1139" r="1"/><circle cx="554" cy="1116" r="1"/><circle cx="170" cy="161" r="2"/><circle cx="856" cy="731" r="2"/><circle cx="406" cy="38" r="1"/><circle cx="678" cy="1298" r="2"/><circle cx="47" cy="730" r="1"/><circle cx="564" cy="1084" r="2"/><circle cx="891" cy="1108" r="1"/><circle cx="889" cy="1120" r="2"/><circle cx="505" cy="614" r="1.5"/><circle cx="493" cy="340" r="2"/><circle cx="127" cy="903" r="1"/><circle cx="618" cy="1226" r="1.5"/><circle cx="469" cy="1294" r="1"/><circle cx="363" cy="550" r="1"/><circle cx="391" cy="512" r="1.5"/><circle cx="58" cy="421" r="1.5"/><circle cx="312" cy="760" r="1.5"/><circle cx="815" cy="1043" r="1.5"/><circle cx="991" cy="838" r="2"/><circle cx="384" cy="392" r="1"/><circle cx="610" cy="507" r="2"/><circle cx="589" cy="72" r="2"/><circle cx="5" cy="1135" r="1.5"/><circle cx="166" cy="10" r="1"/><circle cx="781" cy="78" r="1.5"/><circle cx="44" cy="1106" r="2"/><circle cx="92" cy="909" r="2"/><circle cx="246" cy="237" r="2"/><circle cx="1025" cy="732" r="2"/><circle cx="722" cy="515" r="1.5"/><circle cx="1014" cy="496" r="2"/><circle cx="391" cy="524" r="2"/><circle cx="780" cy="1026" r="1"/><circle cx="355" cy="58" r="1.5"/><circle cx="482" cy="236" r="2"/><circle cx="64" cy="1342" r="1.5"/><circle cx="435" cy="1109" r="1"/><circle cx="587" cy="1224" r="1.5"/><circle cx="912" cy="1" r="2"/><circle cx="873" cy="416" r="1.5"/><circle cx="869" cy="208" r="2"/><circle cx="1028" cy="1291" r="2"/><circle cx="710" cy="21" r="1.5"/><circle cx="599" cy="969" r="2"/><circle cx="807" cy="425" r="1"/><circle cx="686" cy="1017" r="2"/><circle cx="144" cy="638" r="1"/><circle cx="527" cy="205" r="1"/><circle cx="867" cy="375" r="1.5"/><circle cx="1041" cy="0" r="2"/><circle cx="552" cy="757" r="1"/><circle cx="30" cy="255" r="1.5"/><circle cx="789" cy="869" r="2"/><circle cx="523" cy="1318" r="1"/><circle cx="379" cy="801" r="2"/><circle cx="927" cy="147" r="1"/></g>
<path d="M 110.00 104.00 L 970.00 96.00 L 994.00 1248.00 L 84.00 1262.00 L 110.00 104.00" fill="none" stroke="#252521" stroke-width="6" stroke-linecap="round" stroke-linejoin="round" opacity="1.000"/>
<path d="M 682.88 279.65 L 642.90 301.29 L 664.04 323.95 L 616.20 339.13 L 640.95 389.53 L 589.56 360.72 L 585.72 396.19 L 557.23 382.61 L 532.52 428.17 L 511.97 376.21 L 491.11 406.14 L 479.90 363.50 L 426.03 386.29 L 452.34 339.65 L 423.69 331.45 L 434.55 304.59 L 388.10 281.13 L 438.47 254.65 L 414.76 236.16 L 459.27 226.66 L 428.41 169.64 L 477.79 198.97 L 492.38 154.78 L 522.65 184.60 L 536.14 132.17 L 562.44 186.27 L 588.95 163.81 L 595.60 199.10 L 649.20 170.75 L 626.73 222.99 L 657.32 235.61 L 632.76 264.22 Z" fill="#C49A32" opacity="1.000"/>
<path d="M 623.06 280.00 L 604.13 304.07 L 592.31 325.57 L 572.76 340.20 L 550.96 353.52 L 523.70 361.12 L 496.10 352.57 L 475.18 332.71 L 473.03 303.65 L 454.97 280.00 L 457.61 250.74 L 479.89 231.24 L 503.09 219.53 L 525.36 208.29 L 549.98 212.05 L 574.10 217.47 L 593.03 233.83 L 615.87 251.66 Z" fill="#F3E8D2" opacity="1.000"/>
<path d="M 575.01 280.00 L 573.17 298.46 L 562.26 315.14 L 542.38 316.11 L 525.56 312.79 L 507.36 307.15 L 500.25 289.31 L 500.06 270.65 L 509.23 254.51 L 524.14 243.47 L 543.07 238.21 L 559.39 249.02 L 569.91 263.25 Z" fill="#C49A32" opacity="1.000"/>
<path d="M 167.77 608.00 L 193.65 557.05 L 279.66 543.57 L 403.38 547.05 L 457.78 509.83 L 526.32 533.45 L 471.56 582.09 L 429.56 599.21 L 426.45 695.45 L 381.22 687.63 L 364.84 612.39 L 283.30 627.37 L 267.51 700.00 L 217.36 694.89 L 234.66 619.57 Z" fill="#234236" opacity="1.000"/>
<path d="M 442.13 519.78 L 480.78 470.94 L 505.28 531.20 Z" fill="#234236" opacity="1.000"/>
<path d="M 565.34 612.40 L 641.73 572.51 L 756.90 582.54 L 839.14 630.07 L 742.07 667.53 L 631.59 653.96 Z" fill="#6F8497" opacity="1.000"/>
<path d="M 796.35 626.94 L 873.73 592.04 L 849.00 677.62 Z" fill="#6F8497" opacity="1.000"/>
<path d="M 690.78 579.99 L 709.55 622.17 L 663.29 660.03 Z" fill="#6F8497" opacity="1.000"/>
<path d="M 288.27 947.16 L 371.35 908.23 L 476.13 938.57 L 558.99 977.93 L 668.74 942.01 L 738.96 910.39 L 821.19 929.24 L 746.55 977.15 L 639.59 1002.75 L 523.52 966.21 L 445.06 937.98 L 367.02 965.01 Z" fill="#A9472D" opacity="1.000"/>
<path d="M 873.22 219.33 L 880.02 263.24 L 927.96 272.65 L 887.99 296.89 L 895.58 338.95 L 860.53 310.02 L 819.54 328.79 L 836.58 290.08 L 805.54 254.28 L 846.82 255.87 Z" fill="#252521" opacity="1.000"/>
<text x="540.00" y="1054.00" fill="#252521" font-family="Bookman Old Style, Georgia, serif" font-size="86" font-weight="700" text-anchor="middle" dominant-baseline="middle" letter-spacing="1.5">THIRD BUTTON</text>
<text x="540.00" y="1136.00" fill="#234236" font-family="Arial, Georgia, serif" font-size="40" font-weight="700" text-anchor="middle" dominant-baseline="middle" letter-spacing="1.5">not new just familiar</text>
<text x="540.00" y="1188.00" fill="#252521" font-family="Arial, Georgia, serif" font-size="30" font-weight="700" text-anchor="middle" dominant-baseline="middle" letter-spacing="1.5">things we keep coming back to</text>
</svg>