<svg xmlns="http://www.w3.org/2000/svg" width="1400" height="900" viewBox="0 0 1400 900">
<rect width="1400" height="900" fill="#F3E8D2"/>
<g opacity="0.06" fill="#252521"><circle cx="954" cy="861" r="1.5"/><circle cx="1347" cy="250" r="2"/><circle cx="1074" cy="226" r="2"/><circle cx="872" cy="202" r="1"/><circle cx="277" cy="94" r="1"/><circle cx="871" cy="799" r="2"/><circle cx="977" cy="788" r="2"/><circle cx="1398" cy="188" r="2"/><circle cx="1229" cy="695" r="1"/><circle cx="1046" cy="570" r="1"/><circle cx="187" cy="866" r="1.5"/><circle cx="440" cy="530" r="2"/><circle cx="688" cy="735" r="1.5"/><circle cx="889" cy="559" r="1"/><circle cx="57" cy="845" r="1.5"/><circle cx="1200" cy="416" r="1.5"/><circle cx="330" cy="316" r="1"/><circle cx="694" cy="536" r="1.5"/><circle cx="394" cy="407" r="1"/><circle cx="327" cy="363" r="1"/><circle cx="899" cy="22" r="1"/><circle cx="347" cy="258" r="1"/><circle cx="525" cy="515" r="1"/><circle cx="1031" cy="572" r="1"/><circle cx="943" cy="316" r="2"/><circle cx="280" cy="589" r="1.5"/><circle cx="885" cy="515" r="1.5"/><circle cx="177" cy="117" r="1"/><circle cx="751" cy="838" r="1"/><circle cx="1080" cy="91" r="1"/><circle cx="204" cy="112" r="1"/><circle cx="962" cy="738" r="1"/><circle cx="440" cy="849" r="1"/><circle cx="1262" cy="358" r="2"/><circle cx="103" cy="469" r="2"/><circle cx="895" cy="296" r="2"/><circle cx="912" cy="255" r="2"/><circle cx="965" cy="401" r="1"/><circle cx="904" cy="180" r="1.5"/><circle cx="939" cy="716" r="1.5"/><circle cx="245" cy="801" r="2"/><circle cx="612" cy="739" r="1.5"/><circle cx="1125" cy="524" r="2"/><circle cx="1299" cy="149" r="1"/><circle cx="597" cy="249" r="2"/><circle cx="159" cy="43" r="2"/><circle cx="933" cy="413" r="1"/><circle cx="859" cy="108" r="1"/><circle cx="984" cy="187" r="1"/><circle cx="1216" cy="466" r="1.5"/><circle cx="1005" cy="340" r="1.5"/><circle cx="538" cy="131" r="1.5"/><circle cx="502" cy="3" r="1.5"/><circle cx="829" cy="272" r="2"/><circle cx="1105" cy="761" r="1.5"/><circle cx="771" cy="6" r="2"/><circle cx="926" cy="113" r="1.5"/><circle cx="834" cy="138" r="1.5"/><circle cx="123" cy="707" r="1.5"/><circle cx="538" cy="135" r="1"/><circle cx="648" cy="70" r="2"/><circle cx="1346" cy="322" r="1"/><circle cx="1142" cy="559" r="1"/><circle cx="983" cy="556" r="2"/><circle cx="717" cy="791" r="2"/><circle cx="1189" cy="502" r="2"/><circle cx="1375" cy="432" r="1"/><circle cx="80" cy="505" r="1"/><circle cx="765" cy="440" r="2"/><circle cx="740" cy="469" r="1"/><circle cx="494" cy="356" r="1.5"/><circle cx="419" cy="450" r="2"/><circle cx="673" cy="806" r="2"/><circle cx="545" cy="667" r="1"/><circle cx="622" cy="859" r="1"/><circle cx="468" cy="491" r="1"/><circle cx="712" cy="651" r="2"/><circle cx="543" cy="424" r="2"/><circle cx="361" cy="123" r="2"/><circle cx="774" cy="782" r="2"/><circle cx="738" cy="297" r="1.5"/><circle cx="260" cy="395" r="1"/><circle cx="859" cy="824" r="2"/><circle cx="160" cy="217" r="1"/><circle cx="920" cy="15" r="2"/><circle cx="281" cy="480" r="1.5"/><circle cx="1244" cy="168" r="1.5"/><circle cx="1221" cy="638" r="2"/><circle cx="651" cy="491" r="2"/><circle cx="976" cy="755" r="1.5"/><circle cx="1391" cy="170" r="1"/><circle cx="1249" cy="379" r="1"/><circle cx="972" cy="572" r="1"/><circle cx="840" cy="379" r="1.5"/><circle cx="992" cy="389" r="2"/><circle cx="1338" cy="885" r="1.5"/><circle cx="986" cy="372" r="1"/><circle cx="1372" cy="787" r="2"/><circle cx="817" cy="822" r="1"/><circle cx="696" cy="837" r="2"/><circle cx="559" cy="155" r="1.5"/><circle cx="567" cy="526" r="1"/><circle cx="598" cy="302" r="1.5"/><circle cx="1188" cy="143" r="1"/><circle cx="1056" cy="839" r="1.5"/><circle cx="151" cy="32" r="1.5"/><circle cx="69" cy="797" r="1"/><circle cx="797" cy="179" r="2"/><circle cx="169" cy="210" r="1"/><circle cx="1253" cy="743" r="2"/><circle cx="1120" cy="802" r="2"/><circle cx="1238" cy="844" r="1.5"/><circle cx="1134" cy="115" r="1"/><circle cx="752" cy="514" r="1.5"/><circle cx="114" cy="105" r="1.5"/><circle cx="693" cy="5" r="1"/><circle cx="735" cy="178" r="1"/><circle cx="979" cy="859" r="1"/><circle cx="787" cy="95" r="1.5"/><circle cx="523" cy="657" r="1"/><circle cx="1252" cy="45" r="2"/><circle cx="784" cy="210" r="1"/><circle cx="370" cy="142" r="2"/><circle cx="416" cy="534" r="1.5"/><circle cx="663" cy="501" r="2"/><circle cx="840" cy="861" r="1.5"/><circle cx="1193" cy="679" r="2"/><circle cx="1033" cy="479" r="2"/><circle cx="1307" cy="373" r="2"/><circle cx="1249" cy="254" r="1.5"/><circle cx="785" cy="841" r="1"/><circle cx="483" cy="660" r="1"/><circle cx="367" cy="263" r="2"/><circle cx="1316" cy="340" r="1.5"/><circle cx="1205" cy="24" r="1.5"/><circle cx="617" cy="718" r="1"/><circle cx="704" cy="239" r="1"/><circle cx="676" cy="81" r="1.5"/><circle cx="837" cy="452" r="1"/><circle cx="1180" cy="444" r="1"/><circle cx="1211" cy="702" r="2"/><circle cx="296" cy="617" r="1.5"/><circle cx="350" cy="471" r="1"/></g>
<ellipse cx="700.00" cy="450.00" rx="590.00" ry="340.00" stroke="#234236" stroke-width="18" opacity="1.000" fill="none"/>
<ellipse cx="700.00" cy="450.00" rx="522.00" ry="274.00" stroke="#234236" stroke-width="8" opacity="1.000" fill="none"/>
<path d="M 307.27 434.24 L 373.04 395.46 L 483.13 389.16 L 559.64 427.26 L 480.73 469.34 L 373.48 469.23 Z" fill="#6F8497" opacity="1.000"/>
<path d="M 515.42 428.02 L 587.25 388.85 L 580.54 469.87 Z" fill="#6F8497" opacity="1.000"/>
<path d="M 418.41 396.28 L 439.55 429.47 L 407.18 467.35 Z" fill="#6F8497" opacity="1.000"/>
<path d="M 762.60 351.69 L 727.57 367.53 L 742.32 385.74 L 717.67 391.07 L 733.81 419.83 L 700.61 410.67 L 698.94 435.57 L 679.05 422.64 L 658.60 452.16 L 646.61 422.04 L 622.57 434.09 L 622.58 411.45 L 589.04 427.86 L 604.85 388.20 L 577.92 387.33 L 592.33 364.09 L 557.49 353.32 L 594.52 337.15 L 574.54 318.89 L 606.06 307.30 L 586.91 275.72 L 620.31 293.49 L 627.41 263.22 L 651.79 283.84 L 657.23 241.97 L 675.53 284.24 L 698.00 270.06 L 698.49 291.62 L 739.48 275.90 L 716.59 308.32 L 743.66 318.09 L 729.37 332.10 Z" fill="#C49A32" opacity="1.000"/>
<path d="M 711.92 350.00 L 712.69 368.81 L 706.37 388.07 L 690.94 401.86 L 670.70 405.00 L 652.18 400.01 L 632.61 399.17 L 623.86 381.17 L 609.02 368.92 L 604.24 350.00 L 610.36 331.57 L 624.32 319.23 L 631.71 299.28 L 651.97 298.81 L 669.23 303.33 L 690.75 298.48 L 701.51 316.01 L 706.22 333.54 Z" fill="#F3E8D2" opacity="1.000"/>
<path d="M 685.68 350.00 L 686.68 363.48 L 676.60 372.60 L 664.49 378.70 L 650.76 376.99 L 643.26 365.72 L 633.83 356.70 L 632.22 342.91 L 640.25 331.62 L 651.45 324.83 L 664.04 324.98 L 674.47 330.49 L 682.88 338.52 Z" fill="#C49A32" opacity="1.000"/>
<path d="M 821.59 448.42 L 869.75 411.44 L 954.13 397.60 L 1037.48 415.13 L 1079.81 459.97 L 1039.36 479.86 L 944.96 488.62 L 855.47 480.51 Z" fill="#A9472D" opacity="1.000"/>
<path d="M 862.03 407.51 L 837.56 378.96 L 888.10 399.63 Z" fill="#A9472D" opacity="1.000"/>
<path d="M 1020.20 419.95 L 1070.08 392.20 L 1053.46 437.70 Z" fill="#A9472D" opacity="1.000"/>
<text x="700.00" y="592.00" fill="#252521" font-family="Bookman Old Style, Georgia, serif" font-size="88" font-weight="700" text-anchor="middle" dominant-baseline="middle" letter-spacing="1.5">THIRD BUTTON</text>
<text x="700.00" y="680.00" fill="#234236" font-family="Arial, Georgia, serif" font-size="38" font-weight="700" text-anchor="middle" dominant-baseline="middle" letter-spacing="1.5">not new just familiar</text>
<text x="700.00" y="178.00" fill="#252521" font-family="Arial, Georgia, serif" font-size="40" font-weight="700" text-anchor="middle" dominant-baseline="middle" letter-spacing="1.5">ORDINARY THINGS</text>
</svg>