<svg xmlns="http://www.w3.org/2000/svg" width="2400" height="1600" viewBox="0 0 2400 1600">
<path d="M 775.57 598.97 L 862.97 516.01 L 1064.21 472.50 L 1340.15 485.87 L 1490.75 389.10 L 1639.38 469.05 L 1511.18 561.33 L 1417.97 593.16 L 1390.23 788.18 L 1263.47 781.24 L 1223.27 625.48 L 1053.06 634.51 L 999.77 806.31 L 902.69 795.22 L 914.48 639.33 Z" fill="#252521" opacity="1.000"/>
<path d="M 1438.08 431.74 L 1542.58 346.86 L 1588.08 465.63 Z" fill="#252521" opacity="1.000"/>
<path d="M 1394.63 240.39 L 1342.94 268.32 L 1365.76 291.71 L 1325.79 304.65 L 1340.77 350.13 L 1294.42 321.33 L 1287.67 357.97 L 1259.94 346.45 L 1241.16 394.08 L 1219.62 339.91 L 1190.39 367.89 L 1185.05 331.61 L 1132.11 351.24 L 1161.09 305.04 L 1120.64 295.22 L 1142.21 264.11 L 1089.88 245.75 L 1137.61 218.09 L 1114.91 192.28 L 1157.27 191.22 L 1128.80 136.43 L 1180.08 156.52 L 1192.55 118.05 L 1221.89 139.24 L 1235.75 91.91 L 1258.78 149.59 L 1294.06 119.43 L 1293.03 164.06 L 1347.60 142.48 L 1326.93 185.95 L 1356.60 189.44 L 1344.37 220.59 Z" fill="#A9472D" opacity="1.000"/>
<path d="M 1317.36 244.00 L 1320.64 273.35 L 1305.17 298.68 L 1274.41 303.60 L 1254.45 325.97 L 1225.05 328.80 L 1200.67 312.11 L 1185.55 289.69 L 1160.65 272.88 L 1159.45 244.00 L 1167.25 217.52 L 1174.63 189.14 L 1198.83 172.69 L 1227.89 175.32 L 1252.13 175.20 L 1274.86 183.62 L 1298.62 194.82 L 1308.84 218.95 Z" fill="#F3E8D2" opacity="1.000"/>
<path d="M 1276.47 244.00 L 1274.25 261.98 L 1260.07 273.07 L 1244.21 278.65 L 1226.72 279.01 L 1213.10 267.83 L 1203.01 253.12 L 1199.33 233.98 L 1212.67 219.79 L 1227.88 212.04 L 1244.58 206.32 L 1264.27 208.84 L 1276.62 224.78 Z" fill="#A9472D" opacity="1.000"/>
<path d="M 876.70 708.32 L 1082.39 635.02 L 1250.48 690.53 L 1501.32 615.03 L 1374.54 711.77 L 1523.54 765.58 L 1257.54 732.88 L 1117.76 783.27 L 1053.20 724.58 Z" fill="#234236" opacity="1.000"/>
<path d="M 1134.04 670.68 L 1201.34 616.51 L 1250.41 670.62 Z" fill="#234236" opacity="1.000"/>
<path d="M 460.00 1050.00 L 1940.00 1034.00" fill="none" stroke="#252521" stroke-width="16" stroke-linecap="round" stroke-linejoin="round" opacity="1.000"/>
<text x="1200.00" y="1185.00" fill="#252521" font-family="Bookman Old Style, Georgia, serif" font-size="190" font-weight="700" text-anchor="middle" dominant-baseline="middle" letter-spacing="1.5">THIRD BUTTON</text>
<text x="1200.00" y="1370.00" fill="#A9472D" font-family="Arial, Georgia, serif" font-size="78" font-weight="700" text-anchor="middle" dominant-baseline="middle" letter-spacing="1.5">ordinary things</text>
</svg>