<svg xmlns="http://www.w3.org/2000/svg" width="900" height="900" viewBox="0 0 900 900">
<rect width="900" height="900" fill="#EFE4CF"/>
<g fill="#24231F" opacity="0.055"><circle cx="567" cy="775" r="1.5"/><circle cx="537" cy="568" r="1"/><circle cx="45" cy="268" r="1"/><circle cx="26" cy="85" r="1.5"/><circle cx="177" cy="67" r="1.5"/><circle cx="6" cy="99" r="1.5"/><circle cx="4" cy="764" r="1"/><circle cx="106" cy="85" r="2"/><circle cx="135" cy="183" r="1.5"/><circle cx="339" cy="744" r="1"/><circle cx="289" cy="98" r="1"/><circle cx="540" cy="158" r="2"/><circle cx="472" cy="326" r="2"/><circle cx="118" cy="796" r="1.5"/><circle cx="381" cy="437" r="1.5"/><circle cx="891" cy="596" r="1.5"/><circle cx="447" cy="575" r="1.5"/><circle cx="348" cy="70" r="1.5"/><circle cx="218" cy="70" r="2"/><circle cx="573" cy="760" r="1"/><circle cx="405" cy="298" r="2"/><circle cx="814" cy="507" r="2"/><circle cx="813" cy="391" r="1"/><circle cx="342" cy="339" r="1.5"/><circle cx="824" cy="650" r="2"/><circle cx="618" cy="511" r="1"/><circle cx="405" cy="791" r="1.5"/><circle cx="151" cy="31" r="2"/><circle cx="46" cy="655" r="1"/><circle cx="605" cy="340" r="2"/><circle cx="383" cy="32" r="2"/><circle cx="471" cy="27" r="2"/><circle cx="108" cy="256" r="1"/><circle cx="828" cy="802" r="2"/><circle cx="99" cy="66" r="1.5"/><circle cx="885" cy="160" r="1"/><circle cx="419" cy="595" r="1"/><circle cx="29" cy="426" r="1.5"/><circle cx="72" cy="288" r="2"/><circle cx="632" cy="801" r="1"/><circle cx="160" cy="461" r="1.5"/><circle cx="535" cy="791" r="1"/><circle cx="775" cy="283" r="2"/><circle cx="418" cy="132" r="1.5"/><circle cx="130" cy="813" r="1.5"/><circle cx="61" cy="332" r="2"/><circle cx="324" cy="629" r="2"/><circle cx="126" cy="278" r="2"/><circle cx="323" cy="706" r="2"/><circle cx="357" cy="749" r="1"/><circle cx="77" cy="21" r="1.5"/><circle cx="565" cy="116" r="1.5"/><circle cx="851" cy="603" r="1.5"/><circle cx="899" cy="753" r="2"/><circle cx="842" cy="167" r="1"/><circle cx="31" cy="604" r="1.5"/><circle cx="286" cy="157" r="1"/><circle cx="375" cy="265" r="2"/><circle cx="545" cy="786" r="2"/><circle cx="500" cy="11" r="2"/></g>
<path d="M 644.80 372.85 L 581.62 413.37 L 629.75 459.67 L 545.81 465.81 L 567.59 534.00 L 494.45 492.34 L 467.74 560.87 L 418.67 492.78 L 364.97 541.49 L 357.61 467.72 L 280.98 485.97 L 325.00 426.39 L 254.76 404.33 L 322.13 355.27 L 262.08 309.86 L 356.41 304.50 L 343.24 229.19 L 402.96 275.43 L 443.12 204.17 L 477.90 277.53 L 544.46 218.09 L 538.43 302.80 L 619.06 287.32 L 565.49 354.38 Z" fill="#BE9633" opacity="1.000"/>
<path d="M 528.43 384.61 L 507.77 408.19 L 500.61 434.73 L 456.79 455.27 L 433.02 443.33 L 394.51 422.08 L 376.90 412.85 L 389.24 376.67 L 403.10 349.76 L 426.03 331.08 L 454.13 327.53 L 482.83 331.92 L 513.06 356.81 Z" fill="#BE9633" opacity="1.000"/>
<text x="450.00" y="690.00" fill="#24231F" font-family="Arial, serif" font-size="54" font-weight="700" text-anchor="middle" dominant-baseline="middle" letter-spacing="1.2">SUN MARK</text>
<text x="450.00" y="760.00" fill="#24231F" font-family="Bookman Old Style, serif" font-size="48" font-weight="700" text-anchor="middle" dominant-baseline="middle" letter-spacing="1.2">THIRD BUTTON</text>
</svg>