<svg xmlns="http://www.w3.org/2000/svg" width="900" height="900" viewBox="0 0 900 900">
<rect width="900" height="900" fill="#EFE4CF"/>
<g fill="#24231F" opacity="0.055"><circle cx="567" cy="775" r="1.5"/><circle cx="537" cy="568" r="1"/><circle cx="45" cy="268" r="1"/><circle cx="26" cy="85" r="1.5"/><circle cx="177" cy="67" r="1.5"/><circle cx="6" cy="99" r="1.5"/><circle cx="4" cy="764" r="1"/><circle cx="106" cy="85" r="2"/><circle cx="135" cy="183" r="1.5"/><circle cx="339" cy="744" r="1"/><circle cx="289" cy="98" r="1"/><circle cx="540" cy="158" r="2"/><circle cx="472" cy="326" r="2"/><circle cx="118" cy="796" r="1.5"/><circle cx="381" cy="437" r="1.5"/><circle cx="891" cy="596" r="1.5"/><circle cx="447" cy="575" r="1.5"/><circle cx="348" cy="70" r="1.5"/><circle cx="218" cy="70" r="2"/><circle cx="573" cy="760" r="1"/><circle cx="405" cy="298" r="2"/><circle cx="814" cy="507" r="2"/><circle cx="813" cy="391" r="1"/><circle cx="342" cy="339" r="1.5"/><circle cx="824" cy="650" r="2"/><circle cx="618" cy="511" r="1"/><circle cx="405" cy="791" r="1.5"/><circle cx="151" cy="31" r="2"/><circle cx="46" cy="655" r="1"/><circle cx="605" cy="340" r="2"/><circle cx="383" cy="32" r="2"/><circle cx="471" cy="27" r="2"/><circle cx="108" cy="256" r="1"/><circle cx="828" cy="802" r="2"/><circle cx="99" cy="66" r="1.5"/><circle cx="885" cy="160" r="1"/><circle cx="419" cy="595" r="1"/><circle cx="29" cy="426" r="1.5"/><circle cx="72" cy="288" r="2"/><circle cx="632" cy="801" r="1"/><circle cx="160" cy="461" r="1.5"/><circle cx="535" cy="791" r="1"/><circle cx="775" cy="283" r="2"/><circle cx="418" cy="132" r="1.5"/><circle cx="130" cy="813" r="1.5"/><circle cx="61" cy="332" r="2"/><circle cx="324" cy="629" r="2"/><circle cx="126" cy="278" r="2"/><circle cx="323" cy="706" r="2"/><circle cx="357" cy="749" r="1"/><circle cx="77" cy="21" r="1.5"/><circle cx="565" cy="116" r="1.5"/><circle cx="851" cy="603" r="1.5"/><circle cx="899" cy="753" r="2"/><circle cx="842" cy="167" r="1"/><circle cx="31" cy="604" r="1.5"/><circle cx="286" cy="157" r="1"/><circle cx="375" cy="265" r="2"/><circle cx="545" cy="786" r="2"/><circle cx="500" cy="11" r="2"/></g>
<path d="M 263.16 383.81 L 350.51 326.91 L 480.75 304.91 L 596.34 368.73 L 494.42 447.90 L 342.61 453.70 Z" fill="#253344" opacity="1.000"/>
<path d="M 572.72 379.24 L 666.69 316.73 L 647.08 468.96 Z" fill="#253344" opacity="1.000"/>
<path d="M 404.41 323.11 L 433.53 379.60 L 398.81 460.24 Z" fill="#253344" opacity="1.000"/>
<text x="450.00" y="690.00" fill="#24231F" font-family="Arial, serif" font-size="54" font-weight="700" text-anchor="middle" dominant-baseline="middle" letter-spacing="1.2">FISH MARK</text>
<text x="450.00" y="760.00" fill="#24231F" font-family="Bookman Old Style, serif" font-size="48" font-weight="700" text-anchor="middle" dominant-baseline="middle" letter-spacing="1.2">THIRD BUTTON</text>
</svg>