<svg xmlns="http://www.w3.org/2000/svg" width="900" height="900" viewBox="0 0 900 900">
<rect width="900" height="900" fill="#EFE4CF"/>
<g fill="#24231F" opacity="0.055"><circle cx="567" cy="775" r="1.5"/><circle cx="537" cy="568" r="1"/><circle cx="45" cy="268" r="1"/><circle cx="26" cy="85" r="1.5"/><circle cx="177" cy="67" r="1.5"/><circle cx="6" cy="99" r="1.5"/><circle cx="4" cy="764" r="1"/><circle cx="106" cy="85" r="2"/><circle cx="135" cy="183" r="1.5"/><circle cx="339" cy="744" r="1"/><circle cx="289" cy="98" r="1"/><circle cx="540" cy="158" r="2"/><circle cx="472" cy="326" r="2"/><circle cx="118" cy="796" r="1.5"/><circle cx="381" cy="437" r="1.5"/><circle cx="891" cy="596" r="1.5"/><circle cx="447" cy="575" r="1.5"/><circle cx="348" cy="70" r="1.5"/><circle cx="218" cy="70" r="2"/><circle cx="573" cy="760" r="1"/><circle cx="405" cy="298" r="2"/><circle cx="814" cy="507" r="2"/><circle cx="813" cy="391" r="1"/><circle cx="342" cy="339" r="1.5"/><circle cx="824" cy="650" r="2"/><circle cx="618" cy="511" r="1"/><circle cx="405" cy="791" r="1.5"/><circle cx="151" cy="31" r="2"/><circle cx="46" cy="655" r="1"/><circle cx="605" cy="340" r="2"/><circle cx="383" cy="32" r="2"/><circle cx="471" cy="27" r="2"/><circle cx="108" cy="256" r="1"/><circle cx="828" cy="802" r="2"/><circle cx="99" cy="66" r="1.5"/><circle cx="885" cy="160" r="1"/><circle cx="419" cy="595" r="1"/><circle cx="29" cy="426" r="1.5"/><circle cx="72" cy="288" r="2"/><circle cx="632" cy="801" r="1"/><circle cx="160" cy="461" r="1.5"/><circle cx="535" cy="791" r="1"/><circle cx="775" cy="283" r="2"/><circle cx="418" cy="132" r="1.5"/><circle cx="130" cy="813" r="1.5"/><circle cx="61" cy="332" r="2"/><circle cx="324" cy="629" r="2"/><circle cx="126" cy="278" r="2"/><circle cx="323" cy="706" r="2"/><circle cx="357" cy="749" r="1"/><circle cx="77" cy="21" r="1.5"/><circle cx="565" cy="116" r="1.5"/><circle cx="851" cy="603" r="1.5"/><circle cx="899" cy="753" r="2"/><circle cx="842" cy="167" r="1"/><circle cx="31" cy="604" r="1.5"/><circle cx="286" cy="157" r="1"/><circle cx="375" cy="265" r="2"/><circle cx="545" cy="786" r="2"/><circle cx="500" cy="11" r="2"/></g>
<path d="M 270.34 414.09 L 335.88 346.43 L 454.41 319.55 L 564.80 340.78 L 643.06 419.31 L 590.04 474.34 L 451.84 487.86 L 344.02 463.94 Z" fill="#283A31" opacity="1.000"/>
<path d="M 355.00 340.50 L 339.76 278.43 L 400.27 320.10 Z" fill="#283A31" opacity="1.000"/>
<path d="M 545.13 346.95 L 601.38 298.23 L 597.84 392.10 Z" fill="#283A31" opacity="1.000"/>
<path d="M 350.98 461.39 L 338.71 551.58 L 394.04 549.08 L 411.17 478.88 Z" fill="#283A31" opacity="1.000"/>
<path d="M 508.99 479.01 L 525.42 566.51 L 570.95 555.93 L 564.30 481.66 Z" fill="#283A31" opacity="1.000"/>
<text x="450.00" y="690.00" fill="#24231F" font-family="Arial, serif" font-size="54" font-weight="700" text-anchor="middle" dominant-baseline="middle" letter-spacing="1.2">SMALL BEAST</text>
<text x="450.00" y="760.00" fill="#24231F" font-family="Bookman Old Style, serif" font-size="48" font-weight="700" text-anchor="middle" dominant-baseline="middle" letter-spacing="1.2">THIRD BUTTON</text>
</svg>