<svg xmlns="http://www.w3.org/2000/svg" width="900" height="900" viewBox="0 0 900 900">
<rect width="900" height="900" fill="#EFE4CF"/>
<g fill="#24231F" opacity="0.055"><circle cx="738" cy="88" r="1"/><circle cx="306" cy="843" r="2"/><circle cx="541" cy="387" r="2"/><circle cx="297" cy="398" r="2"/><circle cx="252" cy="815" r="2"/><circle cx="492" cy="279" r="1.5"/><circle cx="643" cy="237" r="2"/><circle cx="159" cy="223" r="1"/><circle cx="724" cy="455" r="1"/><circle cx="89" cy="653" r="2"/><circle cx="452" cy="677" r="1.5"/><circle cx="212" cy="516" r="1.5"/><circle cx="606" cy="223" r="1.5"/><circle cx="154" cy="121" r="1.5"/><circle cx="716" cy="87" r="1"/><circle cx="79" cy="214" r="2"/><circle cx="507" cy="702" r="1.5"/><circle cx="527" cy="142" r="2"/><circle cx="843" cy="654" r="1"/><circle cx="526" cy="588" r="2"/><circle cx="297" cy="846" r="1"/><circle cx="296" cy="368" r="2"/><circle cx="98" cy="280" r="2"/><circle cx="266" cy="579" r="1"/><circle cx="686" cy="164" r="1"/><circle cx="781" cy="769" r="1.5"/><circle cx="694" cy="739" r="1.5"/><circle cx="811" cy="721" r="1.5"/><circle cx="226" cy="546" r="1"/><circle cx="405" cy="72" r="1"/><circle cx="416" cy="695" r="1.5"/><circle cx="806" cy="576" r="1.5"/><circle cx="802" cy="348" r="1"/><circle cx="820" cy="313" r="2"/><circle cx="192" cy="755" r="1.5"/><circle cx="694" cy="158" r="1.5"/><circle cx="744" cy="634" r="2"/><circle cx="739" cy="20" r="1.5"/><circle cx="634" cy="410" r="2"/><circle cx="320" cy="890" r="2"/><circle cx="338" cy="528" r="1"/><circle cx="364" cy="57" r="1.5"/><circle cx="487" cy="377" r="1"/><circle cx="251" cy="837" r="1"/><circle cx="826" cy="863" r="2"/><circle cx="349" cy="40" r="1"/><circle cx="609" cy="196" r="1"/><circle cx="828" cy="504" r="1.5"/><circle cx="703" cy="12" r="1.5"/><circle cx="184" cy="283" r="2"/><circle cx="558" cy="87" r="1.5"/><circle cx="260" cy="837" r="1.5"/><circle cx="163" cy="854" r="1.5"/><circle cx="666" cy="350" r="2"/><circle cx="773" cy="78" r="2"/><circle cx="686" cy="817" r="2"/><circle cx="662" cy="705" r="2"/><circle cx="517" cy="862" r="1.5"/><circle cx="451" cy="736" r="1.5"/><circle cx="649" cy="206" r="1.5"/><circle cx="234" cy="230" r="1"/><circle cx="537" cy="800" r="2"/><circle cx="378" cy="668" r="1"/><circle cx="418" cy="674" r="1.5"/></g>
<ellipse cx="450.0" cy="410.0" rx="325.0" ry="255.0" fill="none" stroke="#283A31" stroke-width="10"/>
<path d="M 242.85 364.26 L 294.67 334.38 L 338.04 349.37 L 397.04 310.64 L 464.93 295.78 L 423.08 340.80 L 479.16 374.43 L 390.69 374.90 L 334.56 399.84 L 298.91 372.89 Z" fill="#24231F" opacity="1.000"/>
<path d="M 333.31 344.01 L 349.88 305.16 L 371.29 347.96 Z" fill="#24231F" opacity="1.000"/>
<path d="M 677.69 317.43 L 648.41 332.28 L 670.86 363.25 L 634.76 358.04 L 637.06 393.18 L 608.18 372.64 L 590.03 403.45 L 579.10 372.48 L 549.72 392.28 L 553.77 356.99 L 512.27 360.83 L 533.06 333.26 L 499.03 321.77 L 534.94 302.21 L 514.82 273.32 L 548.91 279.15 L 549.21 244.67 L 574.05 262.37 L 588.31 230.47 L 602.67 261.54 L 637.02 243.09 L 630.56 277.78 L 668.56 273.02 L 648.02 307.83 Z" fill="#BE9633" opacity="1.000"/>
<path d="M 618.36 315.52 L 613.20 332.80 L 606.46 343.74 L 592.31 350.12 L 577.55 350.11 L 570.06 340.01 L 556.46 324.61 L 560.79 309.47 L 573.07 299.83 L 581.63 289.56 L 592.05 289.09 L 612.40 288.84 L 619.11 306.58 Z" fill="#BE9633" opacity="1.000"/>
<text x="450.00" y="585.00" fill="#24231F" font-family="Bookman Old Style, serif" font-size="62" font-weight="700" text-anchor="middle" dominant-baseline="middle" letter-spacing="1.2">THIRD BUTTON</text>
<text x="450.00" y="675.00" fill="#283A31" font-family="Arial, serif" font-size="34" font-weight="700" text-anchor="middle" dominant-baseline="middle" letter-spacing="1.2">ordinary signs</text>
</svg>