<svg xmlns="http://www.w3.org/2000/svg" width="1080" height="1350" viewBox="0 0 1080 1350">
<rect width="1080" height="1350" fill="#253344"/>
<g fill="#EFE4CF" opacity="0.067"><circle cx="720" cy="153" r="1"/><circle cx="596" cy="197" r="2"/><circle cx="655" cy="959" r="2"/><circle cx="763" cy="1062" r="1.5"/><circle cx="717" cy="84" r="2"/><circle cx="1052" cy="840" r="1.5"/><circle cx="403" cy="796" r="1.5"/><circle cx="1078" cy="63" r="1"/><circle cx="328" cy="138" r="2"/><circle cx="17" cy="479" r="1"/><circle cx="1070" cy="1299" r="2"/><circle cx="6" cy="886" r="1"/><circle cx="329" cy="18" r="1.5"/><circle cx="146" cy="326" r="1"/><circle cx="642" cy="295" r="1.5"/><circle cx="373" cy="632" r="1.5"/><circle cx="701" cy="706" r="1"/><circle cx="666" cy="1314" r="1.5"/><circle cx="726" cy="221" r="1"/><circle cx="929" cy="738" r="1.5"/><circle cx="329" cy="577" r="2"/><circle cx="302" cy="985" r="2"/><circle cx="581" cy="480" r="2"/><circle cx="239" cy="894" r="2"/><circle cx="627" cy="1334" r="1"/><circle cx="370" cy="621" r="2"/><circle cx="301" cy="1159" r="1"/><circle cx="255" cy="1292" r="1"/><circle cx="94" cy="1214" r="1.5"/><circle cx="262" cy="1151" r="1.5"/><circle cx="1048" cy="945" r="2"/><circle cx="429" cy="803" r="1"/><circle cx="826" cy="1321" r="2"/><circle cx="986" cy="178" r="1.5"/><circle cx="703" cy="665" r="1"/><circle cx="667" cy="494" r="2"/><circle cx="207" cy="84" r="1"/><circle cx="810" cy="1268" r="1.5"/><circle cx="431" cy="272" r="1"/><circle cx="306" cy="350" r="1.5"/><circle cx="40" cy="996" r="2"/><circle cx="10" cy="480" r="1"/><circle cx="611" cy="116" r="2"/><circle cx="505" cy="1275" r="2"/><circle cx="135" cy="1197" r="1"/><circle cx="949" cy="757" r="1"/><circle cx="66" cy="729" r="2"/><circle cx="589" cy="1128" r="1"/><circle cx="138" cy="589" r="1.5"/><circle cx="725" cy="653" r="2"/><circle cx="806" cy="47" r="1"/><circle cx="453" cy="684" r="1.5"/><circle cx="435" cy="492" r="1"/><circle cx="720" cy="10" r="1.5"/><circle cx="669" cy="1200" r="1"/><circle cx="954" cy="407" r="1.5"/><circle cx="229" cy="219" r="1"/><circle cx="590" cy="909" r="1"/><circle cx="1017" cy="1204" r="1"/><circle cx="364" cy="843" r="1"/><circle cx="1032" cy="287" r="2"/><circle cx="91" cy="600" r="1.5"/><circle cx="926" cy="636" r="1.5"/><circle cx="288" cy="149" r="1"/><circle cx="125" cy="262" r="1"/><circle cx="92" cy="472" r="1.5"/><circle cx="908" cy="897" r="1"/><circle cx="633" cy="922" r="1.5"/><circle cx="789" cy="1204" r="1"/><circle cx="333" cy="42" r="1.5"/><circle cx="752" cy="246" r="2"/><circle cx="1049" cy="979" r="1"/><circle cx="538" cy="953" r="2"/><circle cx="59" cy="1232" r="2"/><circle cx="61" cy="1280" r="1"/><circle cx="435" cy="362" r="1"/><circle cx="1003" cy="1103" r="2"/><circle cx="670" cy="329" r="2"/><circle cx="263" cy="217" r="1"/><circle cx="699" cy="159" r="1.5"/><circle cx="433" cy="903" r="2"/><circle cx="265" cy="403" r="1"/><circle cx="355" cy="910" r="1.5"/><circle cx="976" cy="216" r="1.5"/><circle cx="657" cy="1225" r="1.5"/><circle cx="801" cy="25" r="1.5"/><circle cx="854" cy="458" r="1"/><circle cx="274" cy="183" r="1.5"/><circle cx="757" cy="254" r="1.5"/></g>
<ellipse cx="540.0" cy="482.0" rx="354.0" ry="300.0" fill="none" stroke="#EFE4CF" stroke-width="8"/>
<path d="M 660.73 385.24 L 608.06 403.88 L 639.69 440.39 L 593.75 436.58 L 594.28 479.23 L 555.29 451.96 L 538.17 501.99 L 525.35 459.71 L 482.18 486.11 L 481.83 439.31 L 433.90 444.74 L 464.57 405.75 L 425.43 382.46 L 465.00 358.73 L 433.16 322.27 L 481.72 323.98 L 476.86 275.12 L 518.61 311.93 L 542.37 262.10 L 556.27 309.07 L 598.02 281.02 L 591.89 333.56 L 640.46 326.86 L 615.30 366.30 Z" fill="#BE9633" opacity="1.000"/>
<path d="M 578.26 382.89 L 568.91 396.90 L 561.73 421.48 L 546.11 420.92 L 526.79 425.87 L 506.65 409.70 L 493.97 396.85 L 503.56 371.67 L 509.39 360.46 L 525.66 342.17 L 543.76 341.81 L 564.79 340.27 L 581.38 367.37 Z" fill="#BE9633" opacity="1.000"/>
<path d="M 350.52 615.10 L 441.94 574.44 L 517.14 587.46 L 613.08 542.75 L 724.76 533.84 L 657.31 588.07 L 737.76 622.81 L 601.52 623.92 L 501.68 657.72 L 441.81 629.32 Z" fill="#EFE4CF" opacity="1.000"/>
<path d="M 502.38 586.33 L 527.77 534.66 L 565.10 590.93 Z" fill="#EFE4CF" opacity="1.000"/>
<path d="M 477.07 898.55 L 501.93 843.72 L 534.81 880.45 L 559.40 833.70 L 604.65 897.89 Z" fill="#A04733" opacity="1.000"/>
<path d="M 488.00 908.85 L 541.80 890.16 L 591.45 909.35 L 538.21 922.77 Z" fill="#A04733" opacity="1.000"/>
<text x="540.00" y="994.00" fill="#EFE4CF" font-family="Bookman Old Style, serif" font-size="70" font-weight="700" text-anchor="middle" dominant-baseline="middle" letter-spacing="1.2">things we keep</text>
<text x="540.00" y="1075.00" fill="#EFE4CF" font-family="Bookman Old Style, serif" font-size="70" font-weight="700" text-anchor="middle" dominant-baseline="middle" letter-spacing="1.2">coming back to</text>
<text x="540.00" y="1200.00" fill="#EFE4CF" font-family="Arial, serif" font-size="44" font-weight="700" text-anchor="middle" dominant-baseline="middle" letter-spacing="1.2">THIRD BUTTON</text>
</svg>