<svg xmlns="http://www.w3.org/2000/svg" width="1080" height="1350" viewBox="0 0 1080 1350">
<rect width="1080" height="1350" fill="#EFE4CF"/>
<g fill="#24231F" opacity="0.059"><circle cx="366" cy="1200" r="1"/><circle cx="759" cy="730" r="2"/><circle cx="661" cy="322" r="2"/><circle cx="688" cy="34" r="1.5"/><circle cx="485" cy="730" r="1"/><circle cx="650" cy="1329" r="2"/><circle cx="38" cy="974" r="1"/><circle cx="104" cy="736" r="1"/><circle cx="592" cy="1305" r="1.5"/><circle cx="822" cy="382" r="1"/><circle cx="345" cy="455" r="1"/><circle cx="771" cy="969" r="1"/><circle cx="225" cy="1187" r="2"/><circle cx="526" cy="881" r="2"/><circle cx="427" cy="556" r="1"/><circle cx="160" cy="1151" r="2"/><circle cx="93" cy="269" r="1"/><circle cx="155" cy="462" r="1"/><circle cx="461" cy="1123" r="1"/><circle cx="551" cy="6" r="2"/><circle cx="106" cy="10" r="1.5"/><circle cx="955" cy="177" r="1.5"/><circle cx="476" cy="650" r="2"/><circle cx="127" cy="1021" r="2"/><circle cx="627" cy="917" r="1.5"/><circle cx="829" cy="1143" r="1"/><circle cx="399" cy="68" r="1.5"/><circle cx="1063" cy="717" r="1"/><circle cx="9" cy="822" r="1"/><circle cx="865" cy="1070" r="1"/><circle cx="527" cy="997" r="1"/><circle cx="200" cy="649" r="2"/><circle cx="121" cy="82" r="2"/><circle cx="273" cy="974" r="1"/><circle cx="1063" cy="973" r="2"/><circle cx="816" cy="275" r="2"/><circle cx="597" cy="21" r="2"/><circle cx="467" cy="502" r="1.5"/><circle cx="243" cy="312" r="1.5"/><circle cx="561" cy="369" r="1.5"/><circle cx="455" cy="244" r="2"/><circle cx="790" cy="717" r="1.5"/><circle cx="779" cy="295" r="1"/><circle cx="628" cy="754" r="1"/><circle cx="1056" cy="527" r="1"/><circle cx="22" cy="603" r="1"/><circle cx="506" cy="909" r="1"/><circle cx="356" cy="1090" r="1.5"/><circle cx="975" cy="931" r="1.5"/><circle cx="1068" cy="155" r="1"/><circle cx="1060" cy="882" r="1"/><circle cx="813" cy="388" r="1.5"/><circle cx="712" cy="1315" r="2"/><circle cx="141" cy="1067" r="1.5"/><circle cx="363" cy="975" r="1"/><circle cx="176" cy="1319" r="1"/><circle cx="732" cy="1082" r="2"/><circle cx="240" cy="835" r="1.5"/><circle cx="845" cy="312" r="2"/><circle cx="859" cy="328" r="1"/><circle cx="344" cy="332" r="1"/><circle cx="638" cy="986" r="1.5"/><circle cx="761" cy="1199" r="1.5"/><circle cx="178" cy="666" r="1"/><circle cx="1035" cy="244" r="2"/><circle cx="23" cy="582" r="1.5"/><circle cx="491" cy="219" r="2"/><circle cx="608" cy="636" r="1.5"/><circle cx="1009" cy="1297" r="1"/><circle cx="953" cy="228" r="2"/><circle cx="171" cy="1139" r="2"/><circle cx="370" cy="755" r="1"/><circle cx="1048" cy="853" r="1.5"/><circle cx="981" cy="555" r="2"/><circle cx="200" cy="744" r="1"/><circle cx="916" cy="1173" r="1.5"/><circle cx="971" cy="95" r="1"/><circle cx="0" cy="1329" r="1"/><circle cx="387" cy="664" r="1.5"/><circle cx="284" cy="46" r="1"/><circle cx="68" cy="186" r="1.5"/><circle cx="508" cy="495" r="1.5"/><circle cx="1065" cy="729" r="2"/><circle cx="1045" cy="1314" r="2"/><circle cx="606" cy="443" r="1"/><circle cx="229" cy="187" r="1"/><circle cx="223" cy="1340" r="1.5"/><circle cx="93" cy="335" r="1"/><circle cx="913" cy="887" r="1.5"/><circle cx="909" cy="572" r="1.5"/><circle cx="489" cy="143" r="2"/><circle cx="311" cy="303" r="1.5"/><circle cx="503" cy="954" r="2"/><circle cx="245" cy="1111" r="1.5"/><circle cx="343" cy="424" r="1"/><circle cx="702" cy="1190" r="2"/><circle cx="162" cy="950" r="1"/><circle cx="446" cy="1255" r="2"/><circle cx="706" cy="144" r="1"/><circle cx="1016" cy="475" r="1"/><circle cx="509" cy="827" r="2"/><circle cx="361" cy="380" r="1.5"/><circle cx="355" cy="406" r="2"/><circle cx="813" cy="1220" r="2"/><circle cx="145" cy="803" r="1.5"/><circle cx="769" cy="992" r="1"/><circle cx="662" cy="846" r="2"/><circle cx="231" cy="296" r="1.5"/><circle cx="778" cy="145" r="1"/><circle cx="883" cy="97" r="2"/></g>
<path d="M 126.00 116.00 L 955.00 106.00 L 970.00 1230.00 L 110.00 1242.00 L 126.00 116.00" fill="none" stroke="#24231F" stroke-width="5" stroke-linecap="round" stroke-linejoin="round" opacity="0.900"/>
<path d="M 364.86 279.99 L 337.55 290.53 L 353.34 317.58 L 324.06 316.39 L 323.41 350.48 L 297.15 331.00 L 286.32 361.53 L 274.16 331.14 L 247.49 351.72 L 246.99 315.58 L 213.80 321.70 L 233.10 296.60 L 208.43 279.27 L 233.65 267.18 L 215.98 242.78 L 250.05 240.52 L 248.02 209.95 L 268.77 233.39 L 286.78 203.57 L 297.14 228.79 L 322.05 212.38 L 318.23 242.52 L 355.35 243.26 L 331.92 265.95 Z" fill="#24231F" opacity="1.000"/>
<path d="M 309.88 279.24 L 311.09 290.11 L 299.55 302.00 L 291.21 307.80 L 272.71 308.77 L 261.93 296.88 L 254.28 286.83 L 258.39 270.41 L 268.43 263.91 L 275.00 253.30 L 284.73 253.05 L 305.70 252.06 L 309.90 265.80 Z" fill="#24231F" opacity="1.000"/>
<path d="M 537.79 276.40 L 586.62 251.12 L 624.05 257.57 L 668.40 223.98 L 722.55 213.72 L 687.42 256.79 L 734.84 279.55 L 664.75 283.14 L 617.24 304.53 L 589.52 285.92 Z" fill="#24231F" opacity="1.000"/>
<path d="M 612.65 257.55 L 623.30 221.63 L 642.98 260.42 Z" fill="#24231F" opacity="1.000"/>
<path d="M 317.16 580.84 L 363.16 560.89 L 437.53 554.24 L 493.93 589.82 L 436.42 620.98 L 357.03 610.75 Z" fill="#24231F" opacity="1.000"/>
<path d="M 481.17 589.20 L 524.15 560.30 L 516.04 629.63 Z" fill="#24231F" opacity="1.000"/>
<path d="M 389.85 552.00 L 406.02 589.05 L 387.11 613.19 Z" fill="#24231F" opacity="1.000"/>
<path d="M 642.25 607.31 L 676.91 574.05 L 747.36 562.23 L 816.52 567.49 L 855.47 597.36 L 836.81 631.15 L 753.96 643.26 L 685.93 629.55 Z" fill="#24231F" opacity="1.000"/>
<path d="M 691.03 572.04 L 682.03 533.80 L 717.86 557.20 Z" fill="#24231F" opacity="1.000"/>
<path d="M 806.97 569.44 L 838.99 539.86 L 838.87 592.46 Z" fill="#24231F" opacity="1.000"/>
<path d="M 697.74 629.85 L 690.40 671.65 L 722.19 668.30 L 730.82 630.95 Z" fill="#24231F" opacity="1.000"/>
<path d="M 789.57 632.94 L 797.83 677.13 L 826.21 673.51 L 813.79 634.13 Z" fill="#24231F" opacity="1.000"/>
<path d="M 413.11 892.04 L 471.26 851.58 L 543.23 840.77 L 629.41 856.10 L 671.90 895.89 L 620.74 931.04 L 535.73 943.98 L 458.37 928.00 Z" fill="#24231F" opacity="1.000"/>
<path d="M 582.30 894.88 L 576.56 909.97 L 566.81 918.35 L 543.34 920.25 L 524.89 916.62 L 501.79 913.92 L 498.40 903.16 L 496.82 890.64 L 501.39 874.89 L 524.60 870.17 L 544.52 871.01 L 562.05 873.46 L 581.40 880.85 Z" fill="#24231F" opacity="1.000"/>
<path d="M 826.12 821.02 L 837.02 855.07 L 874.92 853.54 L 844.60 874.23 L 854.62 909.90 L 824.24 890.71 L 795.32 912.34 L 805.34 874.50 L 776.43 852.95 L 812.58 854.61 Z" fill="#24231F" opacity="1.000"/>
<text x="540.00" y="1038.00" fill="#24231F" font-family="Bookman Old Style, serif" font-size="84" font-weight="700" text-anchor="middle" dominant-baseline="middle" letter-spacing="1.2">THIRD BUTTON</text>
<text x="540.00" y="1132.00" fill="#24231F" font-family="Arial, serif" font-size="40" font-weight="700" text-anchor="middle" dominant-baseline="middle" letter-spacing="1.2">ordinary signs</text>
<text x="540.00" y="1184.00" fill="#24231F" font-family="Arial, serif" font-size="34" font-weight="700" text-anchor="middle" dominant-baseline="middle" letter-spacing="1.2">for ordinary things</text>
</svg>