<svg xmlns="http://www.w3.org/2000/svg" width="1080" height="1350" viewBox="0 0 1080 1350">
<rect width="1080" height="1350" fill="#879275"/>
<g fill="#24231F" opacity="0.063"><circle cx="206" cy="500" r="1.5"/><circle cx="312" cy="956" r="1"/><circle cx="696" cy="101" r="2"/><circle cx="472" cy="1128" r="2"/><circle cx="523" cy="1118" r="1"/><circle cx="93" cy="640" r="1.5"/><circle cx="778" cy="324" r="1.5"/><circle cx="817" cy="448" r="2"/><circle cx="498" cy="564" r="1"/><circle cx="840" cy="93" r="1.5"/><circle cx="1073" cy="399" r="1.5"/><circle cx="706" cy="1182" r="1"/><circle cx="789" cy="453" r="1"/><circle cx="377" cy="412" r="1"/><circle cx="310" cy="971" r="1"/><circle cx="965" cy="503" r="2"/><circle cx="832" cy="173" r="1.5"/><circle cx="76" cy="292" r="1"/><circle cx="833" cy="514" r="1"/><circle cx="1030" cy="751" r="2"/><circle cx="829" cy="314" r="1.5"/><circle cx="108" cy="663" r="1.5"/><circle cx="461" cy="746" r="1"/><circle cx="516" cy="1231" r="1.5"/><circle cx="666" cy="555" r="1"/><circle cx="69" cy="220" r="1"/><circle cx="1041" cy="675" r="1.5"/><circle cx="900" cy="682" r="2"/><circle cx="250" cy="183" r="1.5"/><circle cx="444" cy="540" r="2"/><circle cx="167" cy="1155" r="2"/><circle cx="800" cy="905" r="1.5"/><circle cx="483" cy="778" r="1.5"/><circle cx="879" cy="935" r="1.5"/><circle cx="1075" cy="1282" r="1"/><circle cx="217" cy="299" r="1"/><circle cx="6" cy="728" r="1"/><circle cx="697" cy="346" r="1"/><circle cx="932" cy="795" r="2"/><circle cx="171" cy="1342" r="1.5"/><circle cx="110" cy="1261" r="1.5"/><circle cx="538" cy="637" r="2"/><circle cx="870" cy="315" r="2"/><circle cx="893" cy="562" r="2"/><circle cx="278" cy="805" r="1"/><circle cx="145" cy="928" r="1.5"/><circle cx="1013" cy="268" r="2"/><circle cx="104" cy="544" r="1"/><circle cx="265" cy="1029" r="1.5"/><circle cx="466" cy="137" r="2"/><circle cx="355" cy="211" r="1.5"/><circle cx="455" cy="289" r="1"/><circle cx="556" cy="1243" r="2"/><circle cx="576" cy="573" r="1"/><circle cx="1055" cy="557" r="2"/><circle cx="742" cy="856" r="1.5"/><circle cx="204" cy="1091" r="1.5"/><circle cx="628" cy="256" r="2"/><circle cx="416" cy="497" r="1"/><circle cx="734" cy="67" r="1"/><circle cx="963" cy="1091" r="1.5"/><circle cx="800" cy="1291" r="2"/><circle cx="938" cy="192" r="1"/><circle cx="811" cy="692" r="1.5"/><circle cx="122" cy="1074" r="2"/><circle cx="55" cy="529" r="1.5"/><circle cx="972" cy="476" r="1"/><circle cx="1038" cy="1285" r="1.5"/><circle cx="707" cy="204" r="1.5"/><circle cx="216" cy="520" r="2"/><circle cx="1077" cy="64" r="1.5"/><circle cx="187" cy="143" r="2"/><circle cx="826" cy="1217" r="1.5"/><circle cx="428" cy="1073" r="2"/><circle cx="133" cy="531" r="1.5"/><circle cx="847" cy="52" r="1.5"/><circle cx="106" cy="587" r="1.5"/><circle cx="910" cy="1192" r="1.5"/><circle cx="260" cy="831" r="2"/><circle cx="619" cy="340" r="1.5"/><circle cx="792" cy="3" r="1.5"/><circle cx="168" cy="192" r="2"/><circle cx="868" cy="940" r="2"/><circle cx="81" cy="1152" r="1.5"/><circle cx="933" cy="1168" r="2"/><circle cx="613" cy="54" r="1"/><circle cx="775" cy="683" r="2"/><circle cx="936" cy="929" r="1"/><circle cx="672" cy="518" r="1.5"/><circle cx="634" cy="34" r="1.5"/><circle cx="478" cy="226" r="1.5"/><circle cx="804" cy="1320" r="2"/></g>
<path d="M 272.53 623.52 L 332.43 535.57 L 458.30 508.11 L 613.69 501.35 L 696.82 440.84 L 804.45 488.00 L 727.40 565.80 L 666.25 600.33 L 656.69 748.86 L 597.20 731.53 L 559.78 624.30 L 461.96 621.55 L 442.59 741.29 L 368.15 740.90 L 381.60 621.13 Z" fill="#24231F" opacity="1.000"/>
<path d="M 707.75 455.15 L 762.85 390.29 L 791.86 497.71 Z" fill="#24231F" opacity="1.000"/>
<path d="M 766.63 183.04 L 777.23 223.86 L 821.64 227.29 L 783.44 252.18 L 789.84 297.19 L 758.64 270.06 L 718.42 288.68 L 737.14 249.12 L 701.55 218.26 L 744.90 219.32 Z" fill="#F6EDD9" opacity="1.000"/>
<text x="540.00" y="930.00" fill="#F6EDD9" font-family="Bookman Old Style, serif" font-size="82" font-weight="700" text-anchor="middle" dominant-baseline="middle" letter-spacing="1.2">not the first</text>
<text x="540.00" y="1028.00" fill="#24231F" font-family="Bookman Old Style, serif" font-size="76" font-weight="700" text-anchor="middle" dominant-baseline="middle" letter-spacing="1.2">just familiar</text>
<text x="540.00" y="1160.00" fill="#24231F" font-family="Arial, serif" font-size="42" font-weight="700" text-anchor="middle" dominant-baseline="middle" letter-spacing="1.2">THIRD BUTTON</text>
<text x="540.00" y="1215.00" fill="#F6EDD9" font-family="Arial, serif" font-size="34" font-weight="700" text-anchor="middle" dominant-baseline="middle" letter-spacing="1.2">old shop air</text>
</svg>