<svg xmlns="http://www.w3.org/2000/svg" width="1080" height="1080" viewBox="0 0 1080 1080">
<rect width="1080" height="1080" fill="#20211D"/>
<g fill="#EFE4CF" opacity="0.059"><circle cx="785" cy="466" r="1"/><circle cx="351" cy="11" r="1.5"/><circle cx="1026" cy="1041" r="1.5"/><circle cx="1010" cy="533" r="2"/><circle cx="582" cy="189" r="2"/><circle cx="489" cy="2" r="1.5"/><circle cx="861" cy="649" r="1.5"/><circle cx="419" cy="785" r="2"/><circle cx="618" cy="442" r="1.5"/><circle cx="453" cy="599" r="2"/><circle cx="193" cy="298" r="2"/><circle cx="764" cy="734" r="1"/><circle cx="558" cy="787" r="1"/><circle cx="817" cy="798" r="2"/><circle cx="238" cy="13" r="1.5"/><circle cx="313" cy="684" r="1"/><circle cx="618" cy="1016" r="1.5"/><circle cx="856" cy="531" r="1"/><circle cx="655" cy="236" r="2"/><circle cx="170" cy="333" r="1.5"/><circle cx="191" cy="247" r="1.5"/><circle cx="44" cy="606" r="1.5"/><circle cx="376" cy="249" r="2"/><circle cx="528" cy="762" r="2"/><circle cx="771" cy="967" r="1.5"/><circle cx="225" cy="1002" r="2"/><circle cx="73" cy="651" r="1.5"/><circle cx="371" cy="590" r="2"/><circle cx="645" cy="568" r="2"/><circle cx="429" cy="193" r="1"/><circle cx="1031" cy="731" r="2"/><circle cx="34" cy="886" r="2"/><circle cx="123" cy="848" r="1.5"/><circle cx="78" cy="97" r="2"/><circle cx="925" cy="721" r="2"/><circle cx="418" cy="1049" r="1"/><circle cx="61" cy="401" r="1.5"/><circle cx="441" cy="107" r="1"/><circle cx="99" cy="391" r="2"/><circle cx="516" cy="74" r="1"/><circle cx="495" cy="291" r="1"/><circle cx="877" cy="1068" r="2"/><circle cx="713" cy="207" r="1"/><circle cx="652" cy="742" r="1"/><circle cx="178" cy="347" r="2"/><circle cx="851" cy="452" r="1"/><circle cx="326" cy="252" r="1"/><circle cx="389" cy="545" r="1"/><circle cx="836" cy="855" r="1.5"/><circle cx="1065" cy="223" r="1.5"/><circle cx="787" cy="436" r="1.5"/><circle cx="162" cy="394" r="2"/><circle cx="425" cy="363" r="1"/><circle cx="157" cy="351" r="2"/><circle cx="1024" cy="158" r="1"/><circle cx="1022" cy="239" r="1.5"/><circle cx="724" cy="732" r="1.5"/><circle cx="43" cy="543" r="1"/><circle cx="1041" cy="467" r="1"/><circle cx="703" cy="79" r="1"/></g>
<path d="M 296.57 391.56 L 400.43 318.68 L 551.10 300.27 L 703.93 325.98 L 789.29 393.29 L 695.90 458.45 L 530.15 483.35 L 389.81 459.61 Z" fill="#EFE4CF" opacity="1.000"/>
<path d="M 629.13 395.54 L 616.57 418.87 L 596.66 440.85 L 556.11 446.60 L 506.78 446.06 L 475.20 431.79 L 457.20 403.95 L 452.49 379.39 L 474.15 361.22 L 502.54 338.10 L 549.79 340.33 L 582.84 344.88 L 621.46 364.98 Z" fill="#EFE4CF" opacity="1.000"/>
<path d="M 540.07 389.86 L 557.82 435.63 L 605.62 439.96 L 567.96 470.17 L 580.06 515.25 L 539.26 486.61 L 496.65 519.71 L 514.44 468.54 L 472.89 439.50 L 522.17 436.52 Z" fill="#A04733" opacity="1.000"/>
<path d="M 411.59 782.40 L 463.83 699.06 L 531.41 751.31 L 580.10 683.44 L 666.06 776.67 Z" fill="#BE9633" opacity="1.000"/>
<path d="M 439.19 797.70 L 541.97 762.75 L 644.79 800.70 L 537.16 813.89 Z" fill="#BE9633" opacity="1.000"/>
<text x="540.00" y="872.00" fill="#EFE4CF" font-family="Bookman Old Style, serif" font-size="98" font-weight="700" text-anchor="middle" dominant-baseline="middle" letter-spacing="1.2">TB</text>
</svg>