<svg xmlns="http://www.w3.org/2000/svg" width="1080" height="1080" viewBox="0 0 1080 1080">
<rect width="1080" height="1080" fill="#879275"/>
<g fill="#24231F" opacity="0.055"><circle cx="876" cy="399" r="1"/><circle cx="448" cy="551" r="1"/><circle cx="106" cy="405" r="2"/><circle cx="518" cy="376" r="1"/><circle cx="336" cy="745" r="1"/><circle cx="395" cy="462" r="1.5"/><circle cx="631" cy="526" r="1"/><circle cx="1061" cy="198" r="1.5"/><circle cx="112" cy="884" r="1.5"/><circle cx="711" cy="707" r="1"/><circle cx="851" cy="647" r="1"/><circle cx="677" cy="745" r="2"/><circle cx="943" cy="807" r="1"/><circle cx="853" cy="907" r="2"/><circle cx="657" cy="578" r="1"/><circle cx="972" cy="137" r="1.5"/><circle cx="158" cy="302" r="1.5"/><circle cx="1066" cy="356" r="2"/><circle cx="282" cy="607" r="1.5"/><circle cx="23" cy="208" r="2"/><circle cx="339" cy="998" r="1"/><circle cx="271" cy="759" r="2"/><circle cx="319" cy="879" r="1"/><circle cx="609" cy="783" r="2"/><circle cx="93" cy="472" r="2"/><circle cx="770" cy="596" r="1"/><circle cx="929" cy="45" r="2"/><circle cx="210" cy="742" r="2"/><circle cx="989" cy="644" r="1"/><circle cx="138" cy="145" r="1.5"/><circle cx="814" cy="233" r="1"/><circle cx="245" cy="891" r="1"/><circle cx="874" cy="984" r="1.5"/><circle cx="654" cy="358" r="2"/><circle cx="931" cy="142" r="2"/><circle cx="608" cy="215" r="1.5"/><circle cx="445" cy="75" r="1"/><circle cx="1076" cy="1037" r="1.5"/><circle cx="13" cy="209" r="1"/><circle cx="811" cy="828" r="1"/><circle cx="814" cy="157" r="2"/><circle cx="733" cy="50" r="1.5"/><circle cx="1025" cy="105" r="2"/><circle cx="271" cy="18" r="1"/><circle cx="1005" cy="817" r="1"/><circle cx="776" cy="974" r="2"/><circle cx="36" cy="622" r="2"/><circle cx="829" cy="948" r="2"/><circle cx="691" cy="79" r="2"/><circle cx="1036" cy="1079" r="1.5"/><circle cx="214" cy="534" r="2"/><circle cx="349" cy="960" r="1"/><circle cx="506" cy="349" r="1.5"/><circle cx="805" cy="68" r="2"/><circle cx="414" cy="394" r="2"/><circle cx="954" cy="687" r="1.5"/><circle cx="750" cy="739" r="1"/><circle cx="469" cy="215" r="2"/><circle cx="745" cy="568" r="1.5"/><circle cx="632" cy="407" r="2"/><circle cx="68" cy="66" r="1"/><circle cx="153" cy="862" r="1"/><circle cx="979" cy="391" r="2"/><circle cx="625" cy="602" r="2"/></g>
<ellipse cx="540.0" cy="460.0" rx="350.0" ry="290.0" fill="none" stroke="#24231F" stroke-width="9"/>
<path d="M 325.93 479.45 L 399.66 422.23 L 542.37 400.25 L 683.39 411.52 L 769.60 471.39 L 719.40 533.34 L 557.57 547.31 L 413.78 526.99 Z" fill="#24231F" opacity="1.000"/>
<path d="M 436.19 430.32 L 403.95 354.64 L 477.84 398.35 Z" fill="#24231F" opacity="1.000"/>
<path d="M 660.97 423.51 L 729.63 365.06 L 720.96 458.50 Z" fill="#24231F" opacity="1.000"/>
<path d="M 434.99 528.17 L 419.34 595.83 L 480.91 597.06 L 499.66 533.68 Z" fill="#24231F" opacity="1.000"/>
<path d="M 623.88 537.08 L 637.98 603.74 L 697.31 595.32 L 677.32 525.80 Z" fill="#24231F" opacity="1.000"/>
<text x="540.00" y="815.00" fill="#F6EDD9" font-family="Arial, serif" font-size="42" font-weight="700" text-anchor="middle" dominant-baseline="middle" letter-spacing="1.2">ordinary signs</text>
<text x="540.00" y="880.00" fill="#24231F" font-family="Bookman Old Style, serif" font-size="58" font-weight="700" text-anchor="middle" dominant-baseline="middle" letter-spacing="1.2">THIRD BUTTON</text>
</svg>