<svg xmlns="http://www.w3.org/2000/svg" width="1080" height="1080" viewBox="0 0 1080 1080">
<rect width="1080" height="1080" fill="#EFE4CF"/>
<g fill="#24231F" opacity="0.055"><circle cx="876" cy="399" r="1"/><circle cx="448" cy="551" r="1"/><circle cx="106" cy="405" r="2"/><circle cx="518" cy="376" r="1"/><circle cx="336" cy="745" r="1"/><circle cx="395" cy="462" r="1.5"/><circle cx="631" cy="526" r="1"/><circle cx="1061" cy="198" r="1.5"/><circle cx="112" cy="884" r="1.5"/><circle cx="711" cy="707" r="1"/><circle cx="851" cy="647" r="1"/><circle cx="677" cy="745" r="2"/><circle cx="943" cy="807" r="1"/><circle cx="853" cy="907" r="2"/><circle cx="657" cy="578" r="1"/><circle cx="972" cy="137" r="1.5"/><circle cx="158" cy="302" r="1.5"/><circle cx="1066" cy="356" r="2"/><circle cx="282" cy="607" r="1.5"/><circle cx="23" cy="208" r="2"/><circle cx="339" cy="998" r="1"/><circle cx="271" cy="759" r="2"/><circle cx="319" cy="879" r="1"/><circle cx="609" cy="783" r="2"/><circle cx="93" cy="472" r="2"/><circle cx="770" cy="596" r="1"/><circle cx="929" cy="45" r="2"/><circle cx="210" cy="742" r="2"/><circle cx="989" cy="644" r="1"/><circle cx="138" cy="145" r="1.5"/><circle cx="814" cy="233" r="1"/><circle cx="245" cy="891" r="1"/><circle cx="874" cy="984" r="1.5"/><circle cx="654" cy="358" r="2"/><circle cx="931" cy="142" r="2"/><circle cx="608" cy="215" r="1.5"/><circle cx="445" cy="75" r="1"/><circle cx="1076" cy="1037" r="1.5"/><circle cx="13" cy="209" r="1"/><circle cx="811" cy="828" r="1"/><circle cx="814" cy="157" r="2"/><circle cx="733" cy="50" r="1.5"/><circle cx="1025" cy="105" r="2"/><circle cx="271" cy="18" r="1"/><circle cx="1005" cy="817" r="1"/><circle cx="776" cy="974" r="2"/><circle cx="36" cy="622" r="2"/><circle cx="829" cy="948" r="2"/><circle cx="691" cy="79" r="2"/><circle cx="1036" cy="1079" r="1.5"/><circle cx="214" cy="534" r="2"/><circle cx="349" cy="960" r="1"/><circle cx="506" cy="349" r="1.5"/><circle cx="805" cy="68" r="2"/><circle cx="414" cy="394" r="2"/><circle cx="954" cy="687" r="1.5"/><circle cx="750" cy="739" r="1"/><circle cx="469" cy="215" r="2"/><circle cx="745" cy="568" r="1.5"/><circle cx="632" cy="407" r="2"/><circle cx="68" cy="66" r="1"/><circle cx="153" cy="862" r="1"/><circle cx="979" cy="391" r="2"/><circle cx="625" cy="602" r="2"/></g>
<path d="M 713.89 376.35 L 655.84 406.51 L 693.27 466.55 L 614.23 464.83 L 629.50 535.36 L 565.83 486.74 L 538.75 559.95 L 511.39 488.12 L 456.38 526.46 L 456.00 465.49 L 381.69 464.97 L 433.24 408.29 L 368.47 376.79 L 424.72 350.83 L 383.88 286.50 L 459.16 299.75 L 452.56 230.37 L 515.78 268.13 L 538.27 206.46 L 568.10 267.41 L 629.75 221.55 L 616.93 299.69 L 690.68 294.72 L 653.98 356.11 Z" fill="#BE9633" opacity="1.000"/>
<path d="M 601.79 387.12 L 595.44 400.55 L 578.20 428.57 L 543.77 443.05 L 513.13 445.64 L 491.77 416.32 L 481.51 394.50 L 482.18 362.72 L 497.56 337.51 L 523.36 320.40 L 551.96 326.76 L 574.35 330.33 L 592.64 355.62 Z" fill="#BE9633" opacity="1.000"/>
<path d="M 357.00 535.50 L 451.55 500.46 L 518.10 515.55 L 614.92 470.71 L 729.82 458.87 L 660.43 511.08 L 745.10 551.55 L 607.81 549.53 L 506.14 582.60 L 451.07 556.20 Z" fill="#24231F" opacity="1.000"/>
<path d="M 507.72 514.87 L 535.27 458.16 L 567.19 515.38 Z" fill="#24231F" opacity="1.000"/>
<text x="540.00" y="780.00" fill="#24231F" font-family="Bookman Old Style, serif" font-size="74" font-weight="700" text-anchor="middle" dominant-baseline="middle" letter-spacing="1.2">THIRD</text>
<text x="540.00" y="855.00" fill="#24231F" font-family="Bookman Old Style, serif" font-size="74" font-weight="700" text-anchor="middle" dominant-baseline="middle" letter-spacing="1.2">BUTTON</text>
</svg>