<svg xmlns="http://www.w3.org/2000/svg" width="1200" height="900" viewBox="0 0 1200 900">
  <rect fill="#f5f1e8" width="1200" height="900"/>
  <g transform="translate(165 135) scale(2.1)">
    <path fill="#111" d="M48 165c63-65 133-90 210-75l81 16c42 8 64 28 65 58 1 28-25 51-67 70l-7 80c-2 25-20 32-38 14l-63-66-101 46c-28 13-43 7-44-18l-3-64-56-25c-17-8-18-21 1-36z"/>
    <path fill="#f5f1e8" d="M85 181c48-20 98-30 150-31 44-1 84 6 119 20-44 7-87 20-128 39-32 15-63 34-92 57l-5-39-41-18c-14-6-15-17-3-28z"/>
  </g>
</svg>
