<svg xmlns="http://www.w3.org/2000/svg" width="1200" height="900" viewBox="0 0 1200 900">
  <rect fill="#f5f1e8" width="1200" height="900"/>
  <g transform="translate(165 135) scale(2.1)">
    <path fill="#111" d="M51 151c54-43 111-64 170-61 38 2 70 15 96 39l39-19c21-10 39 9 28 29l-27 51c31 24 42 54 30 85-16 41-68 66-139 76l62-100c14-23 2-40-30-40-38 1-75 20-113 57l-56 54c-17 16-38 8-42-15l-12-66-39-24c-17-11-15-27 4-35l70-29c16-6 15-13-2-13l-32 1c-18 0-22-15-7-26z"/>
    <path fill="#f5f1e8" d="M76 171c58-7 116-4 173 8-39 12-75 29-108 50l-65-22c-17-6-17-27 0-36z"/>
  </g>
</svg>
