<svg xmlns="http://www.w3.org/2000/svg" width="1200" height="900" viewBox="0 0 1200 900">
  <rect fill="#f5f1e8" width="1200" height="900"/>
  <g transform="translate(165 135) scale(2.1)">
    <path fill="#111" d="M43 163c43-48 97-76 161-83 43-5 79 5 107 30 18 16 40 20 67 12 25-7 48 12 41 38-5 18-21 34-45 49 21 22 31 47 27 72-6 38-45 69-99 92-20 9-32-3-21-22l45-76c14-24 1-40-31-39-35 2-67 17-97 43l-69 60c-18 15-39 8-44-15l-14-64-49-28c-16-9-16-25 0-34l82-45c18-10 15-20-5-18l-41 4c-22 2-29-13-14-26z"/>
  </g>
</svg>
